<?xml version="1.0" encoding="UTF-8"?>
<svg xmlns="http://www.w3.org/2000/svg" version="1.1" viewBox="0 0 2500 2500">
  <!-- Generator: Adobe Illustrator 29.5.1, SVG Export Plug-In . SVG Version: 2.1.0 Build 141)  -->
  <defs>
    <style>
      .st0 {
        fill: #dd968f;
      }

      .st1 {
        fill: #ef9898;
      }

      .st2 {
        fill: #f6d9c5;
      }

      .st3 {
        fill: #f5e7df;
      }

      .st4 {
        fill: #cabcd3;
      }

      .st5 {
        fill: #c14960;
      }

      .st6 {
        fill: #d6cde2;
      }

      .st7 {
        fill: #d5908a;
      }

      .st8 {
        fill: #310d0b;
      }

      .st9 {
        fill: #f1c2b0;
      }

      .st10 {
        fill: #e3a299;
      }

      .st11 {
        fill: #ab647d;
      }

      .st12 {
        fill: #eb5971;
      }

      .st13 {
        fill: #9d4a29;
      }

      .st14 {
        fill: #fefefe;
      }

      .st15 {
        fill: #d48a5a;
      }
    </style>
  </defs>
  <g id="bg_Cupid">
    <g>
      <path class="st8" d="M1363.19,1864.11s.02-.03.03-.05c0-.04.01-.07.01-.11l-.04.09v.07Z"/>
      <path class="st8" d="M2267.37,955.51c-1.15-15.95-3.54-31.51-11.49-45.83-10.17-18.3-24.15-32.92-41.36-44.63-12.08-8.22-25.1-10.44-39.31-7.03-15.87,3.81-30.45,10.72-44.97,17.89-33.56,16.58-64.63,36.99-94.21,59.86-19.32,14.95-38.88,29.67-61.05,40.37q-9.37,4.52-16.38-3.26c-.33-.36-.29-1.05-.46-1.77,34.84-25.52,58.83-58.94,71.95-100.2.94-2.96,1.97-5.74,1.26-8.9-.88-3.98-2.06-8.03-6.17-9.57-3.69-1.39-6.14,1.67-8.64,3.88-1.37,1.21-2.77,2.41-4.2,3.55-20.17,16.05-43.83,23.07-68.42,27.26-1.19-1.81-.61-2.9-.1-3.97,16.21-33.94,18.66-69.79,11.09-105.76-18.86-89.67-69.81-156.14-150.09-199.83-29.79-16.21-61.99-24.02-96.2-21.58-5.74.41-11.45,1.3-17.21,1.97-.05-1.06-.28-1.73-.08-2.22.71-1.69,1.55-3.32,2.36-4.96,12.04-24.55,19.46-49.92,16.24-77.79-2.48-21.46-7.98-41.98-16.42-61.73-3.31-7.74-9.27-13.67-16.17-18.37-5.54-3.78-7.96-2.69-9.54,3.73-1.54,6.27-3.63,12.31-6.6,18.02-8.5,16.37-19.32,31.14-31.45,44.96-1.52,1.74-2.68,4.18-5.61,4.27-.39-.84-.88-1.64-1.15-2.5-11.87-37.52-34.92-67.17-66.04-90.29-65.76-48.87-139.54-65.92-220.04-51.22-39.94,7.29-75.34,24.62-103.63,54.7-.82.87-1.83,1.56-3.25,2.76-6.26-8.14-12.9-15.65-20.47-22.26-32.65-28.53-71.54-41.42-113.98-44.75-38.87-3.04-76.9,2.08-113.8,14.57-63.83,21.6-116.81,57.92-154.22,115.04-.65.99-1.47,1.87-2.48,3.14-6.79-6.44-15-6.14-23.23-5.64-23.65,1.43-45.44,8.99-65.93,20.47-23.09,12.94-43.69,29.17-61.94,48.33-13.39,14.06-28.69,25.52-45.38,35.4-26.08,15.46-53.43,22-83.41,14.2-7.19-1.87-15.07-1.89-19.43-9.77-4.57,5.49-5.34,10.99-3.89,16.96,2.12,8.66,5.47,16.84,9.93,24.55,11.76,20.36,26.72,37.92,45.46,52.22,13.9,10.61,28.98,19.25,46.5,27.43-13.97,7.25-26.07,14.38-36.39,24.01-13.18,12.32-25.76,25.25-37.35,39.12-13.86,16.59-24.97,34.75-30.73,55.77-18.43,67.32-10.33,131.26,25.07,191.52,2.06,3.5,2.23,6-.06,9.03-.91,1.21-1.63,2.58-2.47,3.85-15.02,22.55-21.25,47.1-17.07,74.1,4.19,27.02,12.56,52.27,30.97,73.21,2.75,3.13,3.34,5.3,1.62,9.45-6.17,14.97-8.52,30.71-4.95,46.66,4.89,21.87,16.71,38.21,38.53,46.45,12.42,4.7,24.83,8.11,38.01,5.93,1.06,2.43-.07,3.98-.71,5.64-5.78,15.23-13.93,29.23-22.8,42.76-30.73,46.87-49.53,98.73-62.72,152.65-8.68,35.49-9.78,72.02-9.44,108.45.14,15.85.79,31.78,4.96,47.28,2.06,7.63,1.91,7.65-5.92,9.46-26.77,6.18-53.53,12.41-80.31,18.53-3.22.74-6.62,3.29-9.62,1.76-3.23-1.65-2-6.04-2.91-9.16-6.92-23.66-21.29-33.5-45.79-31.24-13.66,1.26-26.3,5.44-37.72,12.99-19.61,12.97-39.7,25.18-58.08,40.02-23.96,19.34-45.49,40.76-62.15,66.81-5.14,8.04-4.9,13.27.85,20.9,4.25,5.64,10.42,8.4,16.4,11.38,31.34,15.67,64.5,26.1,98.73,33.08,25.12,5.13,50.52,5.53,75.58-.04,28.7-6.38,40.77-31.58,28.92-58.52-1.29-2.93-2.6-5.84-4.16-9.35,31.55-9.13,62.94-15.11,94.55-22.22.87,6.75,1.47,12.88,4.81,18.1,2.29,3.57,2.91,6.84,1.61,11.13-1.9,6.25-1.09,12.68,1.19,18.89,4.34,11.77,10.59,22.11,21.85,28.45,3.25,1.82,3.82,3.96,3.57,7.39-.55,7.63-.57,15.37.92,22.86,7.55,38.12,18.95,74.63,44.59,105.13,5.5,6.54,10.41,13.58,15.69,20.32,42.34,54.01,94.93,93.7,160.51,115.51,21.4,7.12,42.47,15.25,62.53,25.73-.98,3.22-3.84,4.14-5.91,5.82-9.08,7.33-17.54,15.31-24.51,24.66-11.28,15.15-14.32,31.55-5.79,49.06,7.05,14.46,16.74,26.9,29.05,37.36,13.88,11.8,29.75,14.36,47.25,11.68,19.93-3.06,34.89-14.26,47.7-28.67,17.78-20,25.05-43.75,22.33-70.32-.74-7.23-3.29-14.27-4.67-21.46-3.22-16.81-11.76-30.63-23.48-42.75-7.3-7.55-7.26-7.59-3.18-16.97.24-.56.42-1.15.69-1.7,18.88-39.37,37.64-78.79,56.67-118.09,22.37-46.17,45.01-92.2,67.37-138.37,2.26-4.67,5.18-7.8,9.96-9.95,17.3-7.78,33.6-17.44,49.68-27.45,1.95-1.21,3.6-3.38,6.57-2.65,3.23,8.82,5.67,18.11,10.68,26.17,2.87,4.62,3,8.63,1.64,13.65-6.98,25.62-15.27,50.9-20.33,77.03-8.25,42.57-22.71,82.89-42.52,121.48-15.9,30.96-21.61,64.75-23.96,99.1-1.94,28.31,3.76,55.28,15.77,81,3.88,8.3,5.63,9.95,14.44,9.11,8.45-.8,17.1,1.59,25.37-1.84,6.48-2.69,13.01-5.27,19.57-7.79,6.45-2.48,11.79-6.21,15.59-12.16,4.28-6.7,9.57-10.77,18.53-11.2,12.47-.6,22.16-6.68,24.81-20.33.17-.89.68-1.71.87-2.6,1.85-8.69,7.25-12.81,16.08-13.25,7.66-.38,15.04-2.54,22.31-4.88,6.64-2.14,10.53-6.45,12.02-13.6,1.99-9.6,1.37-18.96-1.48-28.07-4.85-15.53-5.2-31.24-3.26-47.17.53-4.4.33-8.99,2.71-12.94,3,.46,3.62,2.83,4.82,4.43,29.23,39.01,63.88,72.36,104.28,99.64,42.14,28.45,88.12,47.19,138.62,54.48,37.02,5.34,73.75,3.27,110.38-3.52,15.59-2.89,29.76-8.79,42.79-18.25,8.19,5.16,15.58,11.11,20.29,20.27,4.21,8.19,10.3,15.19,17.54,20.98,10.14,8.11,17.04,7.26,24.47-3.47,2.18-3.14,3.8-3.58,7.35-2.79,9.63,2.16,14.39.1,18.61-8.76,2.4-5.05,4.82-6.83,10.71-6.51,19.64,1.09,32.47-12.07,33.83-31.68,1.38-19.94-1.88-38.97-8.3-57.6-4.25-12.32-5.83-24.84-5.23-37.82.2-4.32,1.7-6.56,5.47-8.34,8.14-3.84,16.54-6.13,25.58-6.3,12.37-.24,24.17,3.21,36.21,5.17,11.15,1.81,20.95,6.29,29.82,13.18,4.84,3.74,10.08,6.89,15.6,9.57,6.04,2.94,12.15,3.44,18.69,1.71,16.52-4.39,27.4-18.12,28.64-36.18,1.62-23.4-5.29-45.06-15.79-65.12-13.75-26.27-30.83-50.6-49.87-73.43-5.59-6.7-12.77-11.45-20.84-14.5-24.86-9.42-47.34-6.32-66.45,13.35-7.69,7.91-15.89,15.23-25.34,21.03-4.19,2.57-8.6,4.8-13.47,5.59-5.71.93-8.67-2.04-7.71-7.85,3.34-20.21,1.05-40.33-1.81-60.25-3.63-25.32-13.17-48.84-24.9-71.48-1.03-1.99-1.96-4.04-3.03-6.26,1.43-.14,2.08-.42,2.56-.23,27.24,10.67,55.76,15.73,84.64,19.18,16.65,1.98,32.98.29,48.86-5,13.64-4.55,24.01-12.86,29.89-26.48,9.27-21.48,9.38-42.62-1.15-63.67-.77-1.55-2.53-2.82-1.48-5.12.74-.12,1.6-.44,2.43-.39,18.05,1.05,36.03.21,54.05-1.18,40.08-3.09,77.03-15.57,111.36-36.15,9.96-5.98,19.59-12.53,27.8-20.87,7.37-7.48,13.34-15.95,16.54-26.07,8.41-26.65-7.35-66.57-34.29-76.32-.9-.32-2.63-.21-2.32-1.62.69-2.15,2.33-2.5,3.58-3.27,70.97-43.63,126.31-101.67,163.06-176.82,8.81-18.02,15.05-36.76,13.93-57.25-1.25-23.06-12.07-39.84-32.73-50.29-1.71-.87-4.5-.43-5-4.53,1.99-1.73,4.67-3.78,7.04-6.15,14.52-14.52,27.62-30.15,38.34-47.79,11.61-19.13,21.45-39.02,29.47-59.92,13.21-34.43,20.07-69.78,17.39-106.75ZM642.85,1561.36c-1.66-6.19-1.4-12.25-1.44-18.29-.25-35.89,3.88-71.4,10.27-106.6,4.66-25.65,13.83-50,25.58-73.27,9.49-18.81,19.21-37.5,26.78-57.21.31-.8.91-1.48,1.54-2.49,1.42.73,2.84,1.28,4.07,2.11,27.05,18.34,54.02,36.8,81.19,54.96,3.95,2.64,5.91,5.51,6.45,10.15,4.85,41.43,23.85,76.54,49.07,108.81,3.96,5.07,8.4,9.69,13.1,14.09,10.89,10.17,21.69,20.43,33.12,31.22-8.25,3.48-16.54,5.1-24.64,7.03-29.4,6.98-58.92,13.42-88.33,20.36-23.76,5.6-47.42,11.61-71.11,17.51-5.16,1.28-9.71,2.21-13.96-2.84-3.15-3.74-8.32-4.8-13.21-5.75-12.75-2.5-25.47-2.5-38.48.21ZM721.18,1291.34c-3.48-1.04-5.98-3.47-10.3-6.66,6.49.46,10.26,2.72,14.03,4.98,16.91,5.24,33.88,10.18,51.65,11.76,4.09.37,9.09-1.7,12.14,1.78,2.58,2.93,2.18,7.51,2.73,11.42,1.15,8.14,2.12,16.3,3.44,26.63l-73.69-49.91ZM940.13,2048.04c.1.12.2.24.28.36.34.44.67.89,1,1.34l.39.54c.46.64.91,1.28,1.34,1.93.18.27.36.54.55.81.27.42.54.84.81,1.26.39.62.77,1.24,1.15,1.88.38.63.75,1.27,1.1,1.91.46.81.91,1.64,1.33,2.48.25.46.48.91.7,1.38.02.03.04.07.05.1.28.55.54,1.09.79,1.65.08.16.15.32.22.49.29.62.57,1.25.83,1.89.3.68.58,1.38.85,2.08.28.7.54,1.41.8,2.12.26.72.51,1.43.74,2.16.25.72.48,1.45.69,2.19.22.69.41,1.39.6,2.1.02.07.04.14.06.21.2.72.39,1.46.56,2.2.19.76.36,1.53.52,2.3.18.78.33,1.56.48,2.35.18.97.38,1.94.59,2.91.08.36.16.72.25,1.08.09.37.17.73.26,1.09.17.72.35,1.44.54,2.16.25.97.5,1.92.76,2.88.12.47.25.95.38,1.43.17.64.33,1.28.48,1.92.09.36.17.74.24,1.11.01.03.02.07.02.11.08.34.15.69.21,1.04.09.42.16.84.23,1.27.04.23.08.46.11.69.09.54.17,1.08.23,1.62.08.58.14,1.17.19,1.75.13,1.25.21,2.51.24,3.75.05,1.29.05,2.58,0,3.86-.02.66-.05,1.33-.1,1.99-.07,1.29-.19,2.58-.36,3.86-.01.09-.02.17-.03.25-.07.6-.16,1.21-.26,1.81-.09.66-.2,1.31-.32,1.96h0c-.47,2.62-1.09,5.21-1.82,7.79-.37,1.29-.76,2.58-1.19,3.87-.42,1.28-.87,2.56-1.34,3.84-.47,1.28-.96,2.56-1.48,3.83-.16.41-.33.84-.51,1.26-.12.29-.24.58-.37.87-.12.26-.24.51-.37.76-.11.19-.22.39-.35.58-.06.1-.13.2-.2.3-.1.14-.21.27-.32.41-.08.1-.17.19-.26.29-.16.15-.32.31-.51.45-.12.1-.24.19-.37.27-.08.05-.15.1-.23.14-.23.14-.49.26-.76.37-1.06,2.09-2.13,4.17-3.2,6.27h0c0,.17,0,.31-.03.45-.02.12-.04.23-.08.34-.03.11-.07.21-.13.3-.04.1-.1.19-.17.27-.28.32-.68.55-1.2.67-14.62,21.21-52.04,28.19-73.6,10.18-15.1-12.63-26.76-27.42-32.86-46.37-3.09-9.62-.91-18.3,4.69-26,6.52-8.96,14.85-16.16,24.37-21.94,4.94-3.01,9.45-3.29,14.31.52,7.45,5.84,15.4,11.06,20.58,19.31,3.16,5.04,5.24,10.36,4.72,16.42-.63,7.45-4.53,12.13-9.94,12.06-7.25-.1-14.44-7.01-14.42-13.87,0-.3.09-.6.1-.91.07-1.98,2.11-4.39-.34-5.85-2.89-1.72-5.2.43-7.3,2.21-6.08,5.12-8.43,13.7-5.75,20.71,2.72,7.13,11.86,13.24,19.55,12.67,3-.23,6.11-.93,8.86-2.11,23.08-9.89,30.35-40.04,14.17-59.11-7.39-8.7-16.82-15.05-26.49-20.94-23.64-14.42-49.59-23.57-75.56-32.54-29.67-10.23-57.38-24.12-82.76-42.6-1.95-1.42-34.88-27.56-39.02-32.68-6.77-5.85-30.41-33.21-31.28-34.34-9.44-12.36-19.01-24.63-28.22-37.17-16.03-21.84-23.43-47.37-30.39-73.01-2.38-8.76-4.7-17.6-3.95-27.74,5.38,1.27,10.3,2.43,15.21,3.58,3.65.04,7.31-.08,10.95.16,9.73.62,18.68-1.96,27.21-6.37,1.12-.75,2.24-1.51,3.37-2.26,1.12-.75,2.25-1.51,3.39-2.27,1.14-.76,2.29-1.54,3.45-2.31,1.16-.77,2.33-1.56,3.51-2.35.51,3.84,1.12,7.64,1.83,11.41.26,1.37.52,2.73.8,4.09.03.15.06.3.09.44.13.62.26,1.24.4,1.85.14.69.29,1.37.45,2.05.42,1.86.86,3.72,1.32,5.56.63,2.54,1.3,5.07,2,7.58.23.8.46,1.6.69,2.4s.46,1.59.7,2.39c.24.79.48,1.59.72,2.38.25.79.49,1.58.74,2.37.25.8.5,1.59.76,2.38.25.78.51,1.57.77,2.36.48,1.43.96,2.85,1.45,4.27.56,1.64,1.14,3.27,1.73,4.9.51,1.41,1.02,2.82,1.54,4.22.33.89.67,1.78,1,2.66.39,1.01.77,2.02,1.16,3.03.64,1.64,1.28,3.28,1.93,4.92,1.05,2.65,2.11,5.29,3.2,7.92.45,1.1.9,2.2,1.36,3.29.63,1.54,1.28,3.07,1.92,4.6,1.26,3,2.61,5.93,4.04,8.8.21.45.44.88.67,1.32,1.48,2.93,3.07,5.79,4.74,8.6.52.86,1.04,1.72,1.57,2.57.6.96,1.22,1.91,1.84,2.86.59.9,1.19,1.79,1.81,2.68.12.18.24.36.36.53.52.75,1.04,1.48,1.57,2.21.22.31.45.62.69.93.48.67.97,1.33,1.48,1.99.63.83,1.26,1.65,1.92,2.47.76.97,1.55,1.94,2.35,2.89.73.88,1.48,1.76,2.24,2.63,1.52,1.73,3.08,3.44,4.68,5.12,2.5,2.62,5.02,5.2,7.57,7.74.82.83,1.65,1.65,2.48,2.46.61.59,1.23,1.19,1.85,1.79,1.32,1.3,2.66,2.58,4,3.83.55.53,1.09,1.04,1.64,1.53.46.45.93.89,1.4,1.31.39.37.78.73,1.18,1.09.45.42.9.84,1.35,1.23.89.83,1.8,1.64,2.7,2.45,4.51,4.04,9.1,7.98,13.77,11.8.94.79,1.89,1.56,2.84,2.32.3.25.61.5.92.74.87.71,1.75,1.41,2.63,2.1,1.14.91,2.29,1.8,3.44,2.69,1.39,1.08,2.79,2.15,4.2,3.21,1.22.93,2.45,1.84,3.68,2.75,3.56,2.64,7.17,5.21,10.81,7.73.57.4,1.13.79,1.7,1.17.86.6,1.71,1.18,2.57,1.75.82.56,1.65,1.12,2.48,1.67,1.54,1.03,3.09,2.05,4.64,3.05,2.59,1.68,5.19,3.33,7.82,4.95,1.99,1.25,3.98,2.47,5.99,3.67,3.05,1.83,6.12,3.62,9.21,5.38,2.75,1.57,5.52,3.1,8.3,4.61.97.53,1.94,1.06,2.92,1.58.35.19.7.38,1.06.56.9.49,1.81.96,2.72,1.44,1.28.67,2.56,1.33,3.84,1.99,3.19,1.64,6.39,3.24,9.62,4.8,1.62.78,3.24,1.56,4.87,2.33,1.63.78,3.26,1.54,4.89,2.29,2.93,1.35,5.84,2.74,8.72,4.18.72.35,1.44.71,2.16,1.08.72.36,1.43.73,2.15,1.1,2.9,1.49,5.78,3.03,8.64,4.61,1.05.58,2.11,1.17,3.15,1.76,1.71.96,3.41,1.94,5.1,2.93.69.4,1.38.81,2.07,1.22,1.99,1.17,3.96,2.36,5.92,3.57,1.28.79,2.55,1.58,3.82,2.38,1.5.94,3,1.9,4.49,2.87,1.04.66,2.07,1.33,3.1,2.01,2.02,1.32,4.04,2.66,6.05,4.02,1.3.87,2.6,1.76,3.89,2.65,1.29.89,2.55,1.79,3.79,2.71.42.31.83.61,1.24.94.07.04.14.09.21.16.43.32.86.65,1.28.99.48.37.97.76,1.44,1.15.29.24.58.47.87.71.39.33.78.66,1.16.99.14.11.28.23.42.36.3.25.6.51.9.78.83.73,1.65,1.47,2.45,2.24.29.27.58.55.87.82.86.82,1.7,1.66,2.52,2.51.85.88,1.68,1.78,2.49,2.68.01,0,.03.03.03.04.4.45.79.9,1.18,1.35.03.02.04.03.04.05.1.09.17.19.24.27.06.07.12.13.16.2.32.36.63.73.93,1.11.23.27.45.55.66.82.37.45.73.92,1.08,1.38ZM923.04,2007.37c-4.51-2.71-8.69-5.06-12.71-7.66-18.51-11.97-38.46-21.19-58.19-30.88-46.84-22.97-87.95-53.8-124.07-91.36-4.89-5.08-9.1-10.72-12.89-16.65-14.26-22.34-22.62-47.17-31.38-73.63,10.36,1.82,19.63,1.47,28.93.36,14.65-1.74,26.82-8.08,36.56-18.93,2.86-3.2,5.12-4.06,9.74-3.73,9.72.71,19.4-1.85,29-3.65,45.31-8.49,90.6-17.06,135.9-25.61,1.2-.22,2.39-.48,3.58-.76q8.54-1.98,11.73,5.72c7.78,18.75,25.34,29.09,46.22,27.33,15.6-1.31,30.65-5.24,45.68-9.36,4.01-1.1,7.91-3.09,13.31-2.68-40.94,83.89-81.46,167.17-121.41,251.49ZM1706.21,1839.8c-.6,19.44-6.62,37.74-13.95,55.59-1.03,2.51-2.77,4.73-4.26,7.03-2.44,3.75-5.54,4.47-9.27,1.84.15-4.89-.33-9.88.55-14.63,4.02-21.71.64-42.77-7.47-62.67-9.83-24.12-24.8-44.47-48.24-57.99-22.11-12.74-45.73-20.25-70.87-22.04-15.73-1.12-31.61-1.01-47.48,1.22-19.51,2.74-38.04,8.21-55.95,16.05-17.19,7.52-32.54,18.08-46.53,30.39-9.34,8.21-17.92,17.36-23.11,29.03l.2.17c2.82-.06,4.08-2.05,5.62-4.06,5.41-7.04,11.66-13.4,18.56-18.89,33.74-26.81,73.13-37.51,115.4-39.4,12.49-.56,24.82,1.49,37.12,3.47,38.86,6.26,72.73,21.75,97.52,53.48,11.91,15.25,18.31,32.72,19.33,52.23.56,10.74-1.77,21.19-1.99,31.82-.22-.05-.44-.09-.67-.12-.05-.01-.11-.02-.16-.03-.52-.11-1.12-.25-1.79-.44-.52-.23-1.02-.45-1.49-.66-.48-.2-.94-.4-1.37-.6-.58-.26-1.13-.51-1.63-.75-.25-.12-.5-.23-.73-.35-.48-.23-.93-.45-1.33-.67-.21-.11-.41-.22-.6-.33-.19-.1-.38-.21-.55-.32-.18-.11-.35-.22-.51-.33-.17-.1-.32-.21-.47-.32-.54-.39-.99-.8-1.37-1.24-.17-.19-.33-.4-.47-.61-.42-.62-.72-1.31-.93-2.12-.04-.15-.07-.3-.1-.46-.04-.17-.07-.33-.09-.51-.03-.13-.05-.27-.06-.42-.08-.59-.13-1.23-.15-1.93-.01-.21-.01-.43-.01-.66-.02-.9,0-1.91.03-3.04.01-.42.02-.85.04-1.31.02-.45.03-.92.05-1.41.33-8.67-1.36-17.02-3.03-25.37-1.47-7.34-4.85-13.83-10.3-19.06-16.84-16.18-35.2-30.04-57.2-38.73-17.7-6.98-35.69-12.28-54.68-14.44-9.56-1.08-18.93-.77-28.23,1.07-16.45,3.27-32.73,7.19-48.72,12.41-20.03,6.55-37.85,16.69-54.05,30.05-13.41,11.07-23.8,24.44-31.91,39.71-1.56,2.95-3.24,5.84-4.87,8.75-.12.4-.23.73-.35,1.03-.04.1-.08.2-.11.29-.04.1-.08.19-.12.28-.03.07-.06.14-.1.21-.12.28-.25.56-.39.87-.03.08-.07.16-.11.25-.09.19-.19.41-.28.64-.05.09-.09.18-.12.28-.01.01-.02.02-.02.04-.21.48-.45,1.06-.71,1.79-.06.15-.12.3-.18.46-1.54,3.95-2.01,8.16-3.74,12.01-.11.26-.23.51-.36.76-5.54-9.02-3.8-19.07-2.9-28.53,1.17-12.37,4.57-24.4,9.47-36.04,5.05-11.98,11.89-22.77,20.25-32.39,27.6-31.79,62.92-50.32,103.77-59.18,13.73-2.97,27.68-4.89,41.54-4.93,19.12-.06,38.18,2.42,56.62,8.22,2.2.69,4.37,2.23,6.99,1.45,1.47-3.04-1.37-4.47-2.52-6.25-16.93-26.18-38.83-47.58-63.77-66.05-10.3-7.63-20.99-14.65-31.93-21.27-13.18-7.98-27.52-12.96-42.58-15.98,9.56-4.2,20.01-5,29.97-7.69,12.95-3.49,26.03-6.45,39.04-9.69,6.33-1.58,12.15-.99,16.97,3.85,11.26,11.3,25.19,17.95,39.9,23.43,15.75,5.86,30.89,13.15,45.35,21.64,29.94,17.58,50.98,42.75,64.47,74.89,13.11,31.25,19.16,63.55,18.12,97.21Z"/>
    </g>
  </g>
  <g id="Cupid">
    <g>
      <path class="st3" d="M727.07,1977.48c-1.95-1.42-34.88-27.56-39.02-32.68-6.77-5.85-30.41-33.21-31.28-34.34-9.44-12.36-19.01-24.63-28.22-37.17-16.03-21.84-23.43-47.37-30.39-73.01-2.38-8.76-4.7-17.6-3.95-27.74,5.38,1.27,10.3,2.43,15.21,3.58,7.92,45.77,23.94,88.43,48.69,127.79,1.63,2.6,26.66,32.44,32.26,38.89,4.38,4.75,34.75,33.26,36.7,34.68Z"/>
      <path class="st9" d="M599.53,1011.22s.15.26.15.26c0-.91.38-2.09-.05-2.67-4.53-6.1-7.18-13.29-12.29-19.17-5.96-6.85-11.07-14.69-14.62-23.08-9.25-21.85-17.37-43.96-21.25-67.7-3.75-22.95-2.9-45.44,1.87-67.84,6.07-28.5,16.7-55.39,31.93-80.26,10.33-16.87,21.63-33.16,35.4-47.5,10.19-10.62,22.59-18.44,34.84-26.39,8.21-.27,16.28,2.51,24.6.89,6.86-1.34,8.92-3.01,10.1-9.69,1.34-7.57-.13-9.03-7.88-8.42-15.18,1.19-30.11-1.3-44.04-6.65-36.94-14.17-68.66-35.76-91.49-68.88-1.7-2.46-4.09-4.61-4.33-7.89,3.63-.94,6.48,1.11,9.51,2.46,4.16,1.85,8.08,4.07,12.67,5.1,19.28,4.32,38.65,5.09,58,1.24,15.26-3.03,30.46-7.04,43.92-15.03,20.75-12.31,39.72-27.22,57.22-43.79,11.57-10.96,23.55-21.3,37.27-29.32,14.22-8.32,28.88-15.93,45.99-16.41-2.82,12.68-7.02,25.07-8.04,38.13-.42,5.44-.68,10.89-.91,16.33-.11,2.74.21,5.44,1.36,8,2.08,4.65,3.07,4.72,7.48.43,2.36-1.46,2.62-4.12,3.26-6.36,5.14-18.13,14.16-34.36,24.57-49.83,9.55-14.19,21.06-26.62,33.88-38.06,11.45-10.21,23.38-19.51,36.7-27.06,13.79-7.82,27.65-15.5,41.42-23.36,18.81-10.73,37.88-20.71,58.91-26.73,26.79-7.67,53.9-12.26,81.8-12.5,16.8-.15,33.64-.31,50.15,2.56,28.36,4.94,55.54,13.73,80.47,28.57,2.36,1.41,4.82,2.73,7.77,1.89,0,0-.27.02-.27.02.67.79,1.33,1.58,2,2.38,2.16,1.16,3.35,4.25,6.57,3.26,5.69-2.43,9.97-6.96,15.13-10.21,11.23-7.05,23.78-10.99,35.94-15.82,21.34-8.48,43.43-14.64,66.37-15.98,20.92-1.22,41.92-1.35,62.88,1.4,21.95,2.88,43.28,8.19,63.23,17.38,37.77,17.39,71.36,41.09,99.78,71.63,10.17,10.92,19.74,22.47,26.3,36.11-8.83,8.66-19.75,13.99-30.71,19.22-6.83,3.26-7.19,5.68-1.44,10.79,4.35,3.86,8.95,4.55,14.31,2.13,9.75-4.41,19-9.69,27.61-16,15.57-11.41,29.4-24.63,41-40.13,2.91-3.9,5.87-7.76,8.81-11.64,3.7,2.56,4,6.39,4.4,10.45.61,6.21-1.16,12.12-2.09,18.05-2.1,13.44-4.28,26.89-9.46,39.72-6.3,15.59-14.8,29.98-22.79,44.67-7.79,14.33-18.16,26.51-29.99,37.66-5.33,5.02-10.89,9.7-16.6,14.23-1.39,1.1-3.52,1.78-3.22,4,.34,2.53,2.68,3.26,4.68,3.74,2.03.49,4.3.77,6.32.38,8.62-1.67,17.43-2.48,25.71-5.68,22.3-3.55,39.44-15.85,53.24-32.83,4.86-5.98,10.02-9,17.4-9.97,24.41-3.2,48.12-.24,71.36,7.37,29.1,9.53,55.17,24.62,78.5,44.28,50.61,42.64,84.89,95.52,99.16,160.63,2.88,13.13,4.64,26.46,4.21,39.97-2.79-.45-2.9-2.49-3.12-4.76-1.61-16.46-6.03-32.27-11.65-47.72-8.6-23.66-21.1-45.08-36.06-65.41-16.46-22.36-36.25-41.35-57.42-58.72-16.02-13.15-35.04-22.02-54.72-29.1-20.17-7.25-40.95-11.61-62.14-14.06-6.93-.8-14.04-.16-21.07,0-1.85.04-3.6.98-3.97,3.13-.3,1.8,1.04,2.77,2.34,3.55,3.93,2.34,7.8,4.81,11.88,6.85,7.45,3.72,14.01,8.49,19.91,14.42,7.42,7.45,12.74,16.21,18.01,25.19,21.61,36.8,30.23,76.39,23.78,118.49-4.76,31.05-12.42,61.55-28.25,89.27-1.68,2.95-2.99,6.04-2.63,9.56-4.73-1.78-8.78-5.62-14.39-4.67-1.16,0-2.08.19-1.35,1.7.39,1.31.78,2.63,1.17,3.94-.5,5.1,2,9.47,3.41,14.11,4.99,16.4,5.3,32.98,1.34,49.6-6.05,25.39-20.12,45.55-43.17,57.53-27.05,14.05-44.3,13.55-67.11-4.44-19.44-15.34-32.38-35.35-37.96-59.95-2.09-9.22-3.98-18.56-4.6-27.83-.59-8.79-3.04-17.53-1.99-26.36,1.14-9.64,2.86-19.21,4.42-28.8.29-1.8-.14-2.93-1.85-3.55,2.75-5.05,6.65-9.71,5.52-16.09,4.21-1.22,4.9-5.05,6.24-8.4,3.06-7.67,6.76-15.02,11.03-22.08,1.1-1.82,2.37-3.61,3.1-5.58,1.13-3.05-.74-5.15-3.68-3.9-5.33,2.26-10.77,4.56-15.54,7.78-11.71,7.92-24.53,13.47-37.28,19.36-29.95,13.86-61.2,15.36-93.01,10.29-21.18-3.37-41.16-10.82-59.7-21.82-15.49-9.19-30.8-18.85-44.01-31.01-19.74-18.17-37.89-37.84-54.4-59.19-19.04-24.62-32.3-51.38-37.73-82.05-.76-4.29-.47-8.51-.76-12.75-.33-4.88-2.85-8.35-6.55-8.56-4.41-.25-4.17,3.73-5.19,6.36-6.79,17.42-15.67,33.79-25.91,49.32-9.55,14.48-20.04,28.35-30.08,42.51-21.28,30.04-47.87,54.26-79.51,73.07-7.9,4.7-15.87,9.22-24.61,11.95-4.27,1.33-8.65,5.03-13.57,1.45,1.84-2.42,3.55-4.94,5.53-7.24,8.1-9.35,14.06-19.83,17.45-31.78,1.66-5.85,3.77-11.58,5.73-17.35.99-2.91,1.53-5.89,1.6-8.96.04-1.74-.78-2.87-2.41-3.4-1.61-.53-2.12.83-2.74,1.78-.67,1.01-1.15,2.15-1.72,3.22-12.67,23.99-30.5,44.1-49.13,63.37-17.82,18.43-41.44,26.88-64.96,35.02-1.68-2.93-.45-4.85.1-6.84,3.59-12.96,6.13-26.1,6.8-39.56.08-1.52.2-3.04.28-4.56.13-2.29-.32-4.38-2.86-5.05-3.11-.81-3.34,1.83-4.02,3.74-2.14,6.02-4.19,12.08-6.36,18.1-.61,1.7-1.5,3.31-2.27,4.96-2.65-2.08-1.71-5.03-1.74-7.66-.1-7.94-.04-15.89-.04-23.83,0-10.22-4.25-19.57-6.06-29.42-.15-.83-.86-1.61-1.45-2.29-1.22-1.39-2.62-2.78-4.64-2.46-2.36.38-2.19,2.45-2.53,4.26-1.79,9.38-5.35,18.18-10.22,26.28-8.8,14.62-18,29.02-28.4,42.57-12.23,15.93-23.4,32.65-38.07,46.7-13.47,12.9-27.76,24.62-42.86,35.52-23.92,17.27-49.37,31.14-77.84,39.52-25.39,7.46-50.52,6.47-75.62-.44-18.31-5.04-33.87-15.02-47.5-28.15-2.34-2.25-4.13-5.54-8.19-5.08-.44-.2-.55-.52-.33-.96.48-1.22.1-2.15-.95-2.85-2.55-6.88-3.66-13.99-3.73-21.4,3.35,0,4.08,2.84,5.84,4.33,3.26,2.76,6.42,5.65,9.61,8.49,13.66,12.13,29.87,14.75,47.19,12,11.55-1.83,22.37-5.96,32.17-12.61,12.92-8.77,21.55-20.51,25.7-35.62,4.65-16.92,4.96-33.8-.16-50.63-4.11-13.51-10.11-26.2-17.19-38.39-.76-1.32-1.57-2.64-2.56-3.79-2.89-3.37-6.79-3.11-10.09-1.52-3.85,1.85-.68,4.88.13,7.02,5.92,15.74,11.64,31.54,14.5,48.17,2.91,16.9,1.5,33.49-4.58,49.58-6.78,17.92-23.74,29.27-42.71,28.83-6.58-.15-12.62-1.91-18.21-5.4-14.4-9-25.36-20.97-31.91-36.77-1.17-2.82-2.14-5.73-3.37-8.51-3.06-6.92-7.64-8.33-13.69-4.12-5.22,3.63-9.01,8.38-9.41,14.97-2.63,43.93,8.49,83.07,41.11,114.21,20.73,19.79,45.94,30.86,73.99,35.8,4.44.78,10.26-.41,12.9,3.12,2.36,3.15-.36,8.21-.81,12.43-1.35,12.77-2.61,25.54-2.54,38.41.02,3.34-.38,6.69-.59,10.04-2.99.5-4.87,2.73-6.33,4.92-5.63,8.49-13.18,15.2-20.54,21.96-8.73,8.01-18.25,14.9-30.51,17.06-12.97,2.28-25.73,2.93-38.87.65-22.1-3.83-42.28-11.02-57.98-27.88-1.66-1.78-3.32-3.65-6.1-3.52-2.5-10.72-2.6-21.64-2.05-32.52.54-10.61,2.98-20.82,9.01-29.85,6.55,3.14,12.27,7.55,18.12,11.75,5.47,3.92,10.86,2.77,16.15-.11,3.17-1.73,3.31-3.84.31-6.25-2.32-1.86-5.4-2.73-7.06-5.43l-2.14-1.63ZM829.98,803.47c3.95.37,5-1.97,6.02-4.19,3.62-7.89,8.75-14.68,15.33-20.25,5.58-4.72,11.84-8.51,18.24-12.08,4.46-2.49,5.02-4.34,2.04-7.87-9.2-10.86-14.21-23.2-14.74-37.46-.15-4.02-4.03-5.5-7.13-2.97-1.13.92-1.98,2.31-2.63,3.65-3.49,7.23-8.78,13.19-13.9,19.18-4.74,5.55-10.44,10.1-18.3,11.09-4.42.55-4.82,2.36-2.01,6.05.37.48.83.89,1.25,1.33,6.83,7.23,9.94,15.86,9.79,25.76-.06,3.96-.06,7.93.06,11.89.13,4.33,3.32,5.34,5.97,5.87ZM760.1,696.14c-1.35.26-2.02,1.06-2.25,2.42-.61,3.58-1.06,7.22-2.01,10.72-2.32,8.55-5.01,16.93-12.18,22.96-7.85,6.6-7.82,7.37.04,13.96,1.16.97,2.5,1.73,3.68,2.68,7.88,6.39,12.98,14.44,14.03,24.67.32,3.06.85,6,1.87,8.88,1.04,2.95,3.49,3.02,5.99,2.91,2.43-.1,4-1.44,4.56-3.74.36-1.46.26-3.03.5-4.53,1.99-12.29,6.57-23.35,15.46-32.34q7.33-7.41-.04-14.38c-1.11-1.04-2.15-2.21-3.41-3.02-7.44-4.79-12.19-11.75-15.98-19.52-1.2-2.46-2.43-4.91-3.64-7.37-1.35-2.75-3.89-3.68-6.62-4.31ZM1491.61,666.58c6.83,1.22,9.7,4.37,12.74,7.32,4.43,4.29,8.35,8.79,10.01,15.01.97,3.62,2.84,7.01,7.61,6.28,4.62-.7,4.43-4.34,4.41-7.74-.03-5.01,1.87-9.49,3.56-14.08,2.09-5.66,7.2-8.95,11.23-14.61-11.8-3.91-17.08-13.53-22.1-23.33-1.48-2.89-3.93-2.5-6.31-2.23-2.82.32-4.08,2.21-4.46,4.96-1.5,10.8-4.94,20.63-16.69,28.4ZM837.18,611.97c-10.79-6.37-16.9-14.91-21.58-24.63-1.13-2.35-2.6-4.11-5.56-3.72-2.92.38-3.84,2.36-4.52,4.94-2.5,9.55-6.49,18.28-14.28,24.83-3.23,2.71-2.14,5.08,1.36,5.7,8.04,1.44,12.32,7.23,16.62,13.16,1.25,1.72,2.22,3.66,3.6,5.26,1.94,2.26,3.79,5.17,7.44,4.17,3.29-.9,3.12-3.92,3.68-6.63,1.78-8.58,2.96-17.56,13.25-23.08ZM1429.22,689.74c-.29-.82-.34-1.98-.93-2.41-6.94-5.1-10.34-12.67-14.15-19.96-1.51-2.9-4.05-3.33-6.99-3.17-3.33.18-3.75,2.77-4.29,5.08-1.88,8.13-4.7,15.75-10.58,21.95-2.08,2.19-1.95,4.24.63,6.12,6.01,4.38,10.77,9.92,14.31,16.44,1.76,3.24,4.44,3.88,7.72,3.48,3.37-.41,3.09-3.19,3.67-5.49,1.77-7.12,3.51-14.26,9.16-19.59.63-.59.93-1.53,1.45-2.44ZM642.05,776.1c8.44,1.92,17.87-9.67,18.2-18.07.27-7.04-8.05-14.73-15.85-14.95-9.72-.27-17.99,7.13-18.79,16.32-.95,10.86,7.54,15.95,16.43,16.71ZM1702.57,746.1c-.4-.91-.5-1.73-.91-1.96-6.28-3.36-10.8-8.9-16.37-13.07-4.08-3.05-8.21-.49-8.3,4.83-.07,3.76-1.14,7.18-2.06,10.71-.85,3.24-5.81,4.87-4.31,8.49,1.39,3.36,5.74,4.24,8.52,6.55,2.58,2.14,5.06,4.4,7.54,6.65,2.24,2.04,4.79,2.73,7.59,1.53,2.74-1.17,2.9-3.71,2.75-6.22-.32-5.35.51-10.32,4.09-14.6.74-.88,1.07-2.09,1.48-2.93ZM1027.46,403.59c7.95-.08,16.31-7.44,16.29-14.33-.02-6.37-8.46-12.94-16.42-12.78-8.12.16-16.23,7.47-16.12,14.53.11,7.05,7.37,12.67,16.25,12.58ZM1078.93,380.51c.2-4.72-2.65-7.4-8.07-7.58-6.07-.21-11.65,3.88-12.1,8.86-.43,4.73,3.06,8.43,8.35,8.86,5.87.48,11.58-4.42,11.82-10.13ZM1100.13,381.75c5.45-.08,11.79-4.71,11.41-8.34-.32-3.13-5.83-5.32-11.69-4.64-.3.03-.61.02-.91.07-4.45.8-7.68,4.28-7.14,7.98.72,4.96,4.57,4.94,8.33,4.94Z"/>
      <path class="st2" d="M825.2,1361.64c-3.69-2.28-7.9-3.84-10.45-7.67,1.42-.91,1.53-2.5,2.12-3.88,2.84-6.64,1.33-13.83,2.68-20.75,1.54-7.9,3.79-16.14,2.11-24.44-4.66-22.97-9.83-45.83-17.15-68.1-7.61-23.16-14.57-46.5-21.05-69.99-7.77-28.16-13.11-56.85-18.18-85.58-2.06-11.66-4.54-23.32-3.92-35.29,6.31-.87,12.33-2.87,18.43-4.6,15.75-4.47,30.43-11.69,45.65-17.52.19.58.37,1.16.56,1.74,4.74,14.1,9.77,16.5,23.08,10.41,9.72-4.44,19.85-7.74,29.77-11.62,12.87-5.02,26-5.94,39.5-3.03,4.44.96,9.07,1.67,13.59,1.57,7.28-.16,12.79-3.55,11.47-12.6-1.54-10.55-6.32-18.2-16.91-21.63-9.35-3.03-18.83-5.02-28.7-4.81-.37-1.03-3.97.14-1.87-2.38,1.53-1.84,3.7-3.17,5.66-4.63,26.53-19.64,52.13-40.31,72.8-66.34,2.63-3.31,5.34-4.37,9.32-4.22,19.84.74,39.54-.64,59.25-3.27,15.81-2.11,31.05-6,46.07-10.99,27.06-8.99,52.35-21.93,76.62-36.63,21.84-13.22,44.01-26.28,61.06-45.98,2.66-3.07,5.22-2.67,7.45.58.69,1,1.25,2.1,1.96,3.09,15.98,22.36,33.32,43.53,54.04,61.75,21.35,18.78,45.89,32.12,72.33,42.1,14.05,5.3,28.98,6.84,43.62,9.57,10.46,1.95,20.9,4.69,31.45,5.3,17.66,1.02,32.46,7.43,44.96,19.66,1.55,1.52,3.11,2.99,5.56,2.53,0,0-.03-.04-.03-.04-.44,1.83.07,3.13,2.01,3.66,11.03,16.49,22.46,32.65,38.83,44.76-8.61,13.32-14.63,27.04-15.54,42.21-1.89,31.54,7.33,48.29,33.7,62.11,17.62,9.23,36.57,13.28,56.58,8.76,5.93,3.88,12.43,3.54,19.18,3.22,12.3-.58,23.44-5.98,35.59-7.58,12.29-1.62,23.56.8,35,3.74,4.11,1.06,7.62,3.62,10.78,6.69,15.41,14.99,19.6,33.95,16.22,53.89-4.54,26.78-18.17,48.82-40.32,65.3-12.13,9.03-26.24,14.22-39.33,21.38-4.03,2.21-8.25,3.97-12.85,4.58-14.03,1.84-27.64,7.45-42.3,3.36-5.84-1.63-8.34,1.59-7.01,7.82.53,2.47,1.07,4.62-.13,7.03-6.9,13.92-12.02,28.72-20.82,41.7-16.87,24.88-37.33,46.61-59.06,67.19-8.64,8.19-18.57,14.78-28.59,21.21-1.95,1.25-3.97,1.41-6.1,1.49-11.1-9.89-24.33-16.21-37.73-22.14-18.49-8.19-38.01-8.17-57.63-6.31-46.39,4.39-91.48,14.9-135.83,28.96-20.64,6.54-41.33,12.94-62.25,18.59-5.22,1.41-8.5.85-11.75-3.54-9.59-12.93-23.28-18.98-38.43-23.08-31.62-8.56-58.94,1.57-84.69,18.69-7.89,5.24-14.63,11.97-21.08,18.97-8.22,8.92-14.99,18.52-16.67,32.35-29.42-16.51-55.26-36.75-82.09-55.5,1.32-1.64,3.21-1.35,5-1.59,6.29-.86,12.62-1.53,18.82-2.84,21.27-4.49,39.18-16.11,56.83-27.93,9.41-6.3,16.95-14.59,20.29-26.01,4.65-15.87-.03-29.39-14.05-36.3-1.32-.65-2.39-1.79-3.57-2.71,3.05-2.01,6.17-3.92,9.15-6.03,12.11-8.57,20.66-19.74,24.77-34.15,4.95-17.36,5.54-34.99,2.7-52.67-6.76-42.08-25.18-78.78-52.25-111.39-14.84-17.87-32.19-32.48-53.59-41.93-16.56-7.31-33.69-8.84-50.98-3.44-31.92,9.98-53.66,30.65-63.88,62.81-2.77,8.73-4.87,17.62-5.45,26.85-.3,4.81-1.97,5.97-6.55,4.68-3.48-.98-6.73-2.79-10.07-4.26-1.38-.61-2.7-1.55-4.1-.03-1.5,1.63-1.3,3.15-.03,4.88,3.13,4.25,6.93,8.03,11.41,10.46,6.57,3.56,8.21,8.71,8.45,15.66.72,20.96,5.98,40.96,13.65,60.42,1.55,3.94,3.75,6.06,7.96,6.02,1.2.43,2.04,1.15,2.5,2.42,6.66,18.26,17.56,33.95,29.63,48.94-18.26,6.18-30.42,17.7-33.35,37.57-.46,3.11-.71,6.68-3.88,8.75ZM1107.88,1254.48c-.27-9.38-3.05-12.98-10.64-13.77-13.98-1.45-21.26,8-16.57,21.49-1.73,2.52-4.94,2.13-7.19,3.68-4.84,3.32-10.06,6.68-10.52,13.06-.8,10.93,11.2,23.21,22.27,23.87,14.53.87,25.84-5.94,36.24-14.85,2.33-1.99,3.12-5.11,3.4-8.29.85-9.85-3.83-20.62-16.99-25.19ZM1608.73,1193.21c-9.51-2.09-11.1-1.73-11.24,10.27-.06,5.25,2.8,9.16,6.37,12.7,14.42,14.27,36.12,17.41,53.99,7.24,14.79-8.42,26.85-19.83,35.93-34.42,13.37-21.47,8.48-41.86-9.18-58.39-16.4-15.36-41.46-14.81-57.26.28-2.41,2.3-5.29,4.47-3.38,8.51-.05,6.7-.42,13.42-.06,20.1.55,10.11-2.89,18.43-9.95,25.48-2.33,2.33-5.2,4.4-5.22,8.23ZM1212.77,1189.13c.7.72,1.4,1.45,2.1,2.17-.41,3.97.07,7.75.98,11.71,2.97,12.93,8.4,24.84,14.87,36.2,15.12,26.54,37.46,42.61,68.49,45.34-1.25,5.13-4.51,9.32-6.54,14.08-1.07,2.52-2.51,4.88-2.76,7.71-1.7,19.54,4.25,35.61,21.52,46.17,10.44,6.38,21.62,11.35,33.52,14.38,21.36,5.43,42.87,4.08,64.35.82,5.71-.87,11.5-1.7,16.83-4,19.57-8.43,39.57-15.69,57.67-27.55,22.26-14.58,39.59-32.46,46.87-58.57,2.86-10.24,3.55-21.37-2.83-30.07-9.19-12.53-20.04-23.92-35.45-29.36-3.44-1.21-6.81-2.63-10.21-3.95,1.34-3.4,2.71-6.78,4.02-10.2,6.79-17.72,7.94-36.19,7.3-54.9,2.54-7.63,1.94-15.71,3.27-23.53,3.04-17.89,1.17-35.31-7.01-51.77-.14-.27-.18-.59-.33-.85-2.35-3.98-2.69-7.7.02-11.93,1.92-3.01,3.11-6.69,3.8-10.24.66-3.39,2.28-7.96-1.8-9.94-3.87-1.87-4.48,3.14-6.43,5.04-5.85,5.7-6.13,5.86-10.61-.64-36.46-52.83-88.27-73.37-150.17-66.81-46.6,4.93-83.4,29.09-106.73,70.61-25.62,45.6-25.23,92.64-4.75,140.08ZM1321.82,932.08c1.26,0,2.18,0,3.09,0,8.23.06,10.58-2.59,9.13-10.49-1.57-8.6-6.73-14.27-14.85-17.08-6.05-2.09-12.24-3.79-18.42-5.5-21.99-6.07-43.62-2.66-65.14,2.72-8.03,2.01-15.83,4.74-22.85,9.2-6.92,4.39-12.26,10.13-13.75,18.59-2.64,14.96,7.36,23.91,21.71,19.34,4.35-1.39,8.53-3.3,12.83-4.87,19.82-7.24,39.72-13.94,61.22-14.2,9.24-.11,18.24,1.67,27.03,2.3ZM1123.81,1375.98c29.2-.51,48.01-15.61,62.41-37.73,3.93-6.03,3.49-12.9,2.19-19.55-1.08-5.49-7.85-10.9-13.2-11.18-2.47-.13-4.31.6-3.4,3.71,3.66,12.53-2.12,22-10.29,30.42-7.26,7.49-15.09,14.56-25.95,16.13-15.61,2.26-29.83-.17-40.31-13.57-1.72-2.19-3.91-3.99-7.08-2.24-3.18,1.76-3.9,4.3-2.95,7.72,1.24,4.5,3.02,8.75,6.42,11.96,9.38,8.84,20.11,14.67,32.15,14.33Z"/>
      <path class="st14" d="M1645.75,1401.99c12.82-1.88,24.83-6.17,36.3-12.1,1.9-.98,3.87-1.92,5.52-3.23,6.34-5.01,6.91-10.94,1.79-17.26-15.8-19.5-22.04-41.84-19.75-66.68.25-2.71.78-5.47,1.69-8.03,2-5.56,5.17-9.62,11.27-12.03,25.42-10.07,43.81-27.51,56.53-52.1,19.26-37.25,23.08-76.06,15.54-116.57-.84-4.51-.22-7.24,3.59-10.03,11.08-8.13,21.72-16.84,32.76-25.01,11.85-8.76,25.04-15.06,38.78-20.36,25.32-9.78,50.83-19.15,75.7-29.99,29.07-12.67,57.86-26.08,86.16-40.38,21.58-10.9,40.41-26.27,59.6-40.9,21.63-16.5,43.94-31.97,68-44.8,1.61-.86,3.01-2.11,5-1.88,3.43,1.27,6.81,2.66,10.29,3.78,3.57,1.15,6.43,3.23,9.38,5.49,9.23,7.09,9.4,17.52,9.8,27.38.76,18.88-3.66,36.94-11.96,53.86-11.99,24.44-26.73,47.3-42.52,69.38-8.96,12.55-17.36,25.86-30.52,34.95-3.02,2.08-6.14,3.94-9.16,5.98-3.73,2.51-3.7,5.54-.11,8,3.48,2.38,6.91,2.46,11.19,1.08,16.28-5.24,29.42-15.89,43.81-24.38,9.06-5.35,18.03-10.85,27.01-16.27,2.3,3.26,1.81,6.16,1.34,8.7-2.27,12.28-5.01,24.39-10.25,35.91-8.54,18.76-20.47,35.36-32.45,51.89-7.49,10.34-15.28,20.54-24.14,29.81-15,15.69-30.47,30.8-49.23,42.16-6.14,3.72-5.73,7.67.34,11.52,2.24,1.42,4.65,1.33,7.08,1.35,8.84.09,17.59,1.57,26.37,2.3,10.19.85,20.5,3.11,29.51,8.86,7.42,4.74,8.74,8.87,5.01,16.93-4.26,9.19-9.91,17.33-16.59,25.07-15.82,18.34-33.09,35.06-52.58,49.37-17.93,13.17-38.46,21.03-59.51,27.64-2.62.82-5.34,1.46-7.77,2.68-3.1,1.55-3.33,4.13-1.32,6.85,1.75,2.38,4.14,3.42,7.13,3.43,3.36,0,6.85-.28,10.04.52,6.7,1.68,13.14,1.25,19.88,0,7.32-1.34,14.88-1.44,22.25-2.08.58,2.67-.45,4.27-1.71,5.57-8.49,8.77-16.71,17.8-26.27,25.51-18.12,14.62-38.03,26.52-58.17,37.93-16.4,9.29-33.15,18.49-52.88,19.08-2.17.07-4.55.9-6.54,2.72.95.59,1.65,1.27,2.47,1.48,1.75.46,3.57.67,5.36.98,22.98,3.91,44.34,12.48,62.09,27.28,11.42,9.52,12.74,18.07-.53,27.17-.5.34-1.11.55-1.59.91-20.15,15.39-43.69,21.61-68.26,23.24-29.56,1.96-59.03.02-88.14-6.42-17.62-3.9-34.65-9.61-51.65-15.47-7.2-2.48-14.29-5.36-20.96-9.13-1.59-.9-3.48-1.83-1.16-3.93,19.18,2.2,38.31,2.82,57.6.48,27.84-3.37,48.74-16.2,61.71-41.57,4.84-9.47,6.31-19,4.18-29.25-2.78-13.36-8.23-25.52-16.3-36.54-1.75-2.39-4.38-4.29-4.91-7.6,2.65-1.76,5.7-1.96,8.6-2.64,14.43-3.37,28.05-8.71,39.85-17.79,16.2-12.45,27.01-28.06,27.63-49.38.48-16.33-5.4-30.43-14.45-43.57-1.69-2.45-4.48-4.24-4.89-7.82,11.91-4.59,23.96-8.89,35.11-15.27,11.18-6.4,19.78-15.14,25.58-26.74,16.09-32.19,7.69-74.02-19.72-97.93-8.25-7.2-17.69-11.96-28.35-14.22-15.45-3.27-30.97-3.35-46.42-.09-5.68,1.2-11.23,3.01-15.92,6.69-6.25,4.9-8.9,12.77-6.6,19.61,1.34,3.98,3.31,4.47,6.3,1.41.82-.84,1.21-2.11,2.51-2.48,2.74-.11,5.56.18,8.2-.39,16.9-3.67,33.17-1.5,49.28,4.33,17.5,6.33,30.47,17.24,37.97,34.53,7.42,17.1,1.62,37.79-13.95,48.42-14.84,10.13-31.72,15.3-48.86,19.61-20.4,5.13-41.3,6.57-62.23,7.47-2.4-.23-4.8-.5-7.2-.66-1.59-.1-2.83.55-3.84,1.88-4.48,5.88-1.04,15.59,6.3,16.99,7.69,1.46,15.48,2.45,23.23,3.64,4.34,2.12,8.77,4.07,13,6.39,12.81,7.02,22.03,17.3,26.1,31.41,3.41,11.83,1.91,25.04-10.32,33.22-10.08,6.74-20.48,13.26-32.32,16.64-5.22,1.49-10.68,1.9-16.13,2.49-15.79,1.72-31.46,1.78-47.21-.1-4.19-.5-8.54-.33-11.95,2.95-1.76,1.01-2.33,2.81-2.79,4.55-2.31,8.66.59,13.2,9.39,14.48,9.35,1.37,18.74,2.55,28.11,3.82,12.54,7.6,20.91,18.45,24.74,32.58,2.29,8.47,2.63,17.17-3.13,24.46-3.7,4.69-8.07,9.24-13.04,12.46-24.69,15.99-52.29,17.06-80.16,13.35-23.14-3.09-41.7-17.82-63.37-27.24,1.86-.66,2.89-1.19,3.97-1.39,15.55-2.83,24.46-20.73,21.52-38.03-1.86-10.97-7.13-19.89-14.28-28.09,1.63-1,3.13-1.92,4.62-2.84Z"/>
      <path class="st6" d="M1708.59,1529.75c-2.32,2.1-.43,3.04,1.16,3.93,6.67,3.77,13.77,6.65,20.96,9.13,17,5.86,34.03,11.57,51.65,15.47,29.1,6.45,58.58,8.38,88.14,6.42,24.57-1.63,48.11-7.85,68.26-23.24.48-.37,1.09-.57,1.59-.91,13.27-9.1,11.95-17.65.53-27.17-17.75-14.79-39.11-23.36-62.09-27.28-1.79-.3-3.6-.52-5.36-.98-.82-.21-1.52-.9-2.47-1.48,1.99-1.82,4.38-2.65,6.54-2.72,19.73-.6,36.47-9.79,52.88-19.08,20.14-11.41,40.06-23.31,58.17-37.93,9.56-7.71,17.78-16.74,26.27-25.51,1.26-1.3,2.28-2.9,1.71-5.57-7.37.63-14.92.73-22.25,2.08-6.74,1.24-13.18,1.67-19.88,0-3.19-.8-6.68-.51-10.04-.52-2.98,0-5.37-1.05-7.13-3.43-2.01-2.72-1.79-5.3,1.32-6.85,2.43-1.22,5.15-1.86,7.77-2.68,21.05-6.61,41.58-14.47,59.51-27.64,19.49-14.32,36.76-31.03,52.58-49.37,6.68-7.74,12.33-15.88,16.59-25.07,3.73-8.06,2.41-12.19-5.01-16.93-9-5.75-19.31-8.01-29.51-8.86-8.78-.73-17.52-2.21-26.37-2.3-2.43-.02-4.84.07-7.08-1.35-6.07-3.85-6.48-7.8-.34-11.52,18.76-11.36,34.23-26.47,49.23-42.16,8.86-9.27,16.64-19.46,24.14-29.81,11.98-16.54,23.91-33.13,32.45-51.89,5.24-11.52,7.98-23.63,10.25-35.91.47-2.55.97-5.44-1.34-8.7-8.98,5.41-17.95,10.92-27.01,16.27-14.39,8.49-27.53,19.14-43.81,24.38-4.28,1.38-7.71,1.3-11.19-1.08-3.59-2.46-3.62-5.49.11-8,3.02-2.04,6.15-3.9,9.16-5.98,13.16-9.09,21.56-22.4,30.52-34.95,15.78-22.09,30.53-44.95,42.52-69.38,8.3-16.92,12.72-34.98,11.96-53.86-.4-9.85-.56-20.29-9.8-27.38-2.95-2.26-5.81-4.35-9.38-5.49-3.48-1.12-6.86-2.51-10.29-3.78,18.85-11.41,38.46-21.1,60.08-26.16,11.98-2.8,23-1.04,33.09,6.23,5.96,4.3,11.83,8.71,16.96,13.98,12.08,12.41,19.63,26.68,21.04,44.51,2.44,30.88-.19,60.97-9.75,90.5-14.79,45.66-36.38,87.36-70.41,121.84-28.3,28.68-60.02,52.91-95.25,72.5-2.14,1.19-4.28,2.36-6.39,3.59-6.12,3.6-7.52,7.32-4.82,12.58,2.97,5.78,7.34,7.01,13.67,3.62,23.51-12.57,45.55-27.4,66.42-43.96,9.36-7.42,20.02-8.68,31.14-6.61,10.01,1.87,15.86,8.59,18.12,18.43,2.59,11.29,1.62,22.49-1.1,33.59-2.4,9.82-5.87,19.3-10.32,28.37-18.99,38.66-42.28,74.33-72.96,104.88-12.35,12.3-24.7,24.57-38.04,35.82-27.08,22.83-56.89,41.08-89.78,54.34-8.91,3.59-9.23,8.86-1.5,14.8,2.85,2.19,5.66,2.73,9.35,1.56,14.3-4.52,28.39-2.89,42.11,2.63,25.33,10.17,33.13,36.07,17.81,58.42-5.1,7.44-11.56,13.43-18.77,18.64-36.48,26.3-76.96,42.03-121.89,46.05-21.96,1.96-43.89,3.17-65.88.32-15.53-2.01-30.47-6.23-45.26-11.2-2.47-.83-5.56-4.07-7.92.25-1.88,3.44-.72,7.88,3.35,10.21,13.82,7.91,26.15,18.01,39.58,26.49,14.53,9.18,20.64,22.86,20.02,39.7-.44,12.22-5.8,21.69-16.79,27.5-12.14,6.41-25.4,9.71-38.87,9.26-44.73-1.52-87.8-9.68-127.23-32.72-28.97-16.92-57.87-34.15-89.68-45.64-22.28-8.05-37.26-24.89-50.79-43.36-14.42-19.68-21.05-42.58-27.18-65.63-4.54-17.1-8.43-34.38-12.61-51.58,6.61,1.21,10.82,5.96,13.73,11.16,8.75,15.64,18.95,30.32,28.58,45.38,1.05,1.64,2.43,2.68,4.4,2.87,4.56,14.38,10.42,28.13,21.29,39,19.23,19.25,42.17,32.2,68.67,38.3,23.7,5.45,57.98-4.33,69.09-37.53,4.51-13.49,8.11-26.9,4.63-41.23-1.27-5.21,1.5-4.16,4.41-2.63Z"/>
      <path class="st7" d="M1739.13,874.38c-.36-3.53.94-6.62,2.63-9.56,15.84-27.72,23.49-58.21,28.25-89.27,6.45-42.1-2.17-81.69-23.78-118.49-5.27-8.98-10.59-17.74-18.01-25.19-5.9-5.92-12.46-10.69-19.91-14.42-4.08-2.04-7.96-4.51-11.88-6.85-1.3-.78-2.65-1.75-2.34-3.55.36-2.15,2.11-3.09,3.97-3.13,7.02-.16,14.14-.8,21.07,0,21.19,2.45,41.97,6.81,62.14,14.06,19.69,7.08,38.71,15.95,54.72,29.1,21.17,17.37,40.96,36.36,57.42,58.72,14.96,20.33,27.46,41.75,36.06,65.41,5.62,15.46,10.04,31.27,11.65,47.72.22,2.28.33,4.31,3.12,4.76.73,21.42-3.73,41.79-12.17,61.41-1.57,3.65-4.05,4.91-7.84,4.85-7.93-.13-15.86.3-23.73-1.36-5.67-1.2-7.27.62-6.24,6.18,1.32,7.13,4.6,10.53,11.97,11.9,13.73,2.55,27.46,1.57,41-1.07,19.8-3.86,39.47-8.33,57.23-18.57,1.01-.58,2.09-1.3,3.6-.22-.14,2.99-2.09,5.37-3.58,7.85-13.5,22.51-30.45,41.89-51.41,57.86-19.31,14.71-41.62,19.87-65.07,21.69-14.4,1.12-28.66.58-42.53-4.34-5.01-1.78-7.02.08-6.15,5.16,1.04,6.05,3.81,10.3,10.33,12.57,20.09,6.97,40.35,5.52,60.69,2.33,10.26-1.61,20.47-3.83,29.84-8.5,4.28-2.13,6.12-.33,7.76,3.12.93,1.95.75,3.48-1.35,4.51-1.92.94-3.82,1.91-5.72,2.89-38.33,19.82-78.88,34.38-118.98,49.97-19.88,7.73-37.86,18.31-54.31,31.75-6.57,5.37-13.37,10.45-20.68,16.15-3.92-7.2-7.5-13.87-11.15-20.49-3.57-6.48-10.07-10.3-15.49-16.09,26.07-10.08,41.63-30.2,54.13-52.98,11.67-21.26,13.67-43.83,7.51-67.45-5.39-20.64-15.82-37.52-32.94-50.29-3.4-2.54-6.55-5.42-9.82-8.15Z"/>
      <path class="st2" d="M1426.2,1826.38s.46-.26.46-.26c2.83,1.97,5.49.15,7.77-.88,10.08-4.55,20.75-6.82,31.44-9.29,24.28-5.6,48.74-7.49,73.35-3.33,33.51,5.66,63.24,19.4,88.12,42.95,2.17,2.05,3.9,4.85,7.44,4.82,2.53,6.24,3.57,12.7,2.94,20.42-5.56-2.73-9.43-6.56-13.42-10.11-9.55-8.51-19.18-16.96-28.34-25.87-3.62-3.53-6.09-2.9-9.21.02-6.58,6.15-6.68,10.69-.19,16.64,4.03,3.69,8.42,7.01,11.65,11.52,2.61,2.25,1.02.84,2.61,2.25.35.13.62.35.82.66-3.03,4.13.55,6.63,2.35,9.58,6.16,10.11,16.1,16.48,24.38,24.49,15.07,14.58,32.55,25.49,52.05,33.07,12.34,4.8,23.73,10.89,33.01,20.57,3.49,3.64,6.16,7.84,7.2,12.55,2.59,11.84,4.8,23.73,6.08,35.85,1.78,16.9,4.8,33.63,12.09,49.33,3.45,7.43,6.54,15.15,8.62,23.05,2.13,8.07,2.82,16.52-6.24,21.74-5.71-4.74-7.45-11.67-9.88-18.18-2.1-5.62-4.71-6.84-11.2-4.86-6.58,2.01-8.34,4.58-6.36,10.64,1.98,6.08,4.34,12.07,8.47,17.12,1.5,1.83,4.08,3.55,2.09,6.22-2.32,3.11-5.26.74-7.32-.39-7.27-3.99-11.67-10.52-14.44-18.2-.69-1.92-.35-4.73-3.05-5.03-2.73-.31-4.26,2.03-5.74,3.97-4.68,6.11-3.86,12.38-.8,18.92,1.87,3.99,5.44,7.11,6.48,11.87-10.48-1.59-19.52-11.15-29.84-31.06-.04-1.11-4.38-5.58-5.46-5.65-1.62-.66-2.85-1.79-3.81-3.23-1.65-4.91-2.25-5.52-4.41-7.56-17.44-16.57-38.44-26.63-61.32-33.1-17.38-4.91-35.48-4.75-53.22-7.08-15.04-1.97-30.17-3.46-45.12-6.05-15.92-2.76-31.43-6.87-46.11-14.02-20.35-9.91-37.23-24.1-52.77-40.28-6.21-6.47-11.36-13.46-15.44-21.4-3.05-5.94-5.19-12.37-9.34-17.73-2.16-44.93,11.9-82.81,48.26-110.98l5.38-3.68ZM1429.21,1909.93c1.83-3.95,5.72-6.2,7.9-9.98,3.98-6.89,9.08-12.83,16.08-17.11,3.03-1.86,5.56-4.81,7.75-7.7,6.36-8.4,3.27-20.48-5.66-25.7-12.35-7.21-28.01-3.97-37.88,5.49-9.81,9.4-15.68,21.18-17.08,34.45-1.12,10.63,3,22.93,19.8,22.35,2.44-.08,4.88,0,7.32,0-5.74,6.68-11.64,13.13-13.85,22.15-2.86,11.63.62,25.96,8.59,31.84,11.73,8.65,27.21,8.58,37.11,3,13.37-7.54,18.95-18.97,17.73-34.24-.9-11.18-9.12-21.4-19.91-24.58-9.4-2.78-18.59-1.87-27.88.04ZM1494.93,1961.33c-5.82-.15-10.84,2.9-12.17,7.38-1.34,4.53,1.31,9.5,6.71,12.57,4.95,2.82,10.58,2.67,14.43-.74,3.08-2.74,4.91-6.25,3.69-10.51-1.23-4.25-7.77-8.58-12.66-8.7Z"/>
      <path class="st14" d="M1593.19,1745.71c-2.62.78-4.79-.76-6.99-1.45-18.44-5.8-37.5-8.28-56.62-8.22-13.86.04-27.81,1.96-41.54,4.93-40.85,8.86-76.17,27.39-103.77,59.18-8.36,9.62-15.2,20.41-20.25,32.39-4.9,11.64-8.3,23.67-9.47,36.04-.9,9.46-2.64,19.51,2.9,28.53-1.32,9.13-2.63,18.26-3.94,27.39-4.96,1.78-9.9,2.64-15.13.81-1.94-.68-4.21-.7-6.31-.62-10.78.44-21.2-2.05-31.33-4.92-28.82-8.17-54.72-21.68-75.44-43.98-2.39-2.57-4.33-6.07-8.53-6.34-8.17-16.51-13.47-34.03-16.51-52.07-3.14-18.64-5.4-37.46-7.14-56.28-.57-6.19,1.69-12.64,2.63-18.97.48-3.28,3.16-4.31,5.62-5.46,19.09-8.9,38.11-17.96,57.33-26.56,27.84-12.47,56.13-23.89,83.73-37,35.07-16.64,71.86-28.92,109.96-36.95,15.06,3.02,29.4,8,42.58,15.98,10.94,6.62,21.63,13.64,31.93,21.27,24.94,18.47,46.84,39.87,63.77,66.05,1.15,1.78,3.99,3.21,2.52,6.25Z"/>
      <path class="st2" d="M1031.01,1553.4c-1.14.13-2.29.27-3.44.4-2.66-2.27-6.24-2.21-9.21-3.65-13.85-6.71-24.42-16.06-25.82-32.64.66-6.39,4.99-10.4,9.6-13.92,7.98-6.09,16.09-11.91,25.85-15.22,5.44-1.84,10.61-4.57,16.18-6.25,3.23-.97,6.51-2.48,8.01-5.71,1.58-3.4,1.73-7.14-.35-10.52-2.27-3.67-5.96-3.96-9.74-3.51-4.35.52-8.55,3.13-13.6.7,1.53-2.95,3.86-4.69,6.38-6.4,14.23-9.63,30.32-14.23,47.02-16.16,8.65-1,17.81-1.78,26.39.83,18.78,5.73,35.05,15.64,47.14,31.38,3,3.91,5.62,4.8,10.03,3.11,11.09-4.24,22.41-7.9,33.43-12.31,44.36-17.75,90.4-28.12,137.9-32.71,6.94-.67,13.99-.79,20.84-2,20.73-3.67,41.29-.59,61.83,1.34,8.3.78,16.3,1.44,24.34-.98,2.57,4.95,3.98,10.12,3.91,15.8-.2,16.95-8.48,30.32-18.99,42.5-14.17,16.41-31.92,28.23-50.99,38.2-17.92,9.36-36.8,16.25-56.22,21.72-22.32,6.28-45.07,10.83-68.17,11.81-20.06.85-40.24,1.57-60.37-1.14-5.23-.71-11.14-4.25-15.98-1.18-4.91,3.12-5.74,9.84-8.74,14.76-7.49,12.28-15.23,24.5-28.3,31.68-17.48,9.59-36.33,13.91-56.25,12.92-4.84-.24-9.62-1.52-14.43-2.32,1.89-1.35,3.92-2.55,5.65-4.09,2.67-2.38,1.13-3.99-1.29-5.27-2.92-4.53-8.01-3.79-12.2-4.49-10.16-1.71-19.43-5.4-27.38-11.72-7.34-5.82-15.32-11.69-14.05-22.97,4.86-1.43,9.74-2.79,14.56-4.34,1.96-.63,3.93-1.49,5.63-2.64,3.2-2.17,2.95-4.33-.63-5.66-1.34-.5-2.94-.33-4.42-.46-1.6-.46-3.03-.35-4.1,1.12Z"/>
      <path class="st10" d="M1069.25,1613.92c4.81.8,9.59,2.08,14.43,2.32,19.93.99,38.78-3.33,56.25-12.92,13.08-7.17,20.81-19.39,28.3-31.68,3-4.92,3.82-11.64,8.74-14.76,4.84-3.07,10.75.47,15.98,1.18,20.13,2.72,40.31,1.99,60.37,1.14,23.1-.98,45.85-5.52,68.17-11.81,19.42-5.47,38.3-12.36,56.22-21.72,19.07-9.96,36.83-21.78,50.99-38.2,10.51-12.18,18.79-25.55,18.99-42.5.07-5.68-1.34-10.85-3.91-15.8.18-2.54.36-5.08.54-7.63,9.42,6.47,14.64,16.15,19.37,26.04,8.85,18.52,14.4,38.19,18.79,58.16,3.53,16.09,7.86,31.94,12.63,47.7,4.08,13.5,9.52,26.34,17.34,38.15,1.96,2.97,4.64,5.68,5.05,9.48-2.53,2.21-5.69,2.32-8.61,3.04-25.74,6.34-51.63,12.06-77.13,19.33-.84.24-1.8.05-2.71.07-4.2-2.84-8.82-1.6-13.21-.97-2.69.39-5.33,1.2-8.09,1.11-19.73-.62-38.54,4.31-57.29,9.51-26.93,7.47-53.74,15.39-80.75,22.54-19.35,5.12-38.95,9.3-58.44,13.9,3.26-16.87,10.43-32.46,16.02-48.56,1.31-3.78,4.16-3.92,7.23-4.22,13.67-1.37,27.33-2.75,40.99-4.16,29.84-3.06,59.16-8.55,87.7-18.04,20.41-6.79,39.78-15.49,57.14-28.39,9.79-7.28,20.57-13.25,29.03-22.25,1.36-1.45,4.04-2.47,3.04-5.08-.84-2.19-3.23-2.64-5.32-2.98-5.79-.94-10.35.94-14.94,4.89-20.68,17.8-42.85,33.5-68.63,43.16-22.92,8.59-46.57,14.66-70.89,17.76-19.08,2.44-38.16,4.88-57.29,6.76-13.38,1.31-26.84,1.14-40.16-1.34-2.43-.45-4.77-1.02-6.69-2.68.06-.61.08-1.22.19-1.82.47-2.55,4-4.85,1.61-7.48-2.59-2.85-6.29-1.45-9.51-.74-3.8.84-6.16,3.46-8.3,6.66-21.62,32.27-52.84,46.62-90.77,48.15-8.8.36-16.83-2.74-24.4-6.85-4.63-2.52-8.44-6.15-10.59-11.08-2.58-5.89-.69-9.67,5.29-11.59,5.78-1.86,11.52-3.87,17.27-5.82Z"/>
      <path class="st7" d="M1071.39,796.33c4.92,3.58,9.31-.11,13.57-1.45,8.74-2.73,16.71-7.25,24.61-11.95,31.64-18.81,58.23-43.03,79.51-73.07,10.04-14.17,20.53-28.03,30.08-42.51,10.25-15.54,19.13-31.91,25.91-49.32,1.03-2.63.78-6.61,5.19-6.36,3.7.21,6.21,3.68,6.55,8.56.29,4.25,0,8.47.76,12.75,5.43,30.67,18.69,57.43,37.73,82.05,16.51,21.34,34.66,41.02,54.4,59.19,13.22,12.16,28.53,21.83,44.01,31.01,18.54,11,38.53,18.45,59.7,21.82,31.81,5.07,63.06,3.57,93.01-10.29,12.75-5.9,25.57-11.45,37.28-19.36,4.76-3.22,10.21-5.52,15.54-7.78,2.94-1.25,4.81.85,3.68,3.9-.73,1.97-1.99,3.76-3.1,5.58-4.28,7.06-7.97,14.41-11.03,22.08-1.34,3.36-2.02,7.19-6.24,8.4-3.51-1.98-6.44-.66-9.17,1.64-3.27,2.76-6.55,5.51-9.74,8.36-22.52,20.14-48.65,31.99-78.72,35.94-51.81,6.81-97.23-7.5-137.56-39.85-20.13-16.15-38.01-34.56-53.82-54.87-16.92-21.74-26.02-46.83-29.5-74.03-.77-6.06-1.29-12.15-1.98-18.22-.17-1.51-.42-3.04-.9-4.47-.62-1.86-1.97-3.05-4.07-3.07-1.78-.02-2.77,1.14-3.42,2.58-.74,1.67-1.44,3.38-1.94,5.13-.5,1.76-.54,3.65-1.09,5.38-15.92,49.61-39.22,94.15-84.33,123.99-22.27,14.74-46.84,23.47-72.59,29.49-17.93,4.19-36.16,6.08-54.46,7.05-16.93.9-33.42-2.17-49.89-8.01,31.2-10.67,60.68-23.9,81.99-50.27Z"/>
      <path class="st4" d="M1540.51,1533.85c-1.96-.2-3.35-1.23-4.4-2.87-9.63-15.06-19.83-29.74-28.58-45.38-2.91-5.21-7.12-9.96-13.73-11.16-3.05-8.28-6.05-16.58-9.18-24.83-.98-2.57,0-3.93,2.15-5.14,33.08-18.5,56.2-47.36,79.26-76.28,2.45-3.07,4.31-6.64,7.45-9.1,2.84.41,2.81,3.05,3.78,4.77,14.28,25.23,35.16,39.07,64.86,37.89,1.21-.05,2.42.16,3.63.25-1.5.92-2.99,1.84-4.62,2.84,7.15,8.21,12.42,17.12,14.28,28.09,2.94,17.3-5.97,35.19-21.52,38.03-1.09.2-2.11.72-3.97,1.39,21.67,9.43,40.24,24.15,63.37,27.24,27.88,3.72,55.47,2.65,80.16-13.35,4.97-3.22,9.34-7.77,13.04-12.46,5.76-7.29,5.43-15.98,3.13-24.46-3.83-14.13-12.2-24.98-24.74-32.58,4.57.07,9.2-.33,13.7.28,20.55,2.78,44.8,29.64,45.87,50.38.1,1.93-.24,3.69-1.1,5.29-8.43,15.8-19.21,28.92-37.37,34.33-10.33,3.07-20.78,5.05-31.46,5.78-32.62,2.23-64-2.31-93.19-17.92-7.57-4.05-10.23-2.57-10.25,5.95,0,4.63,1.46,8.26,5.71,10.66,5.33,3.01,10.62,6.04,16.37,8.17,5.93,2.2,10.72,5.96,13.98,11.34,9.59,15.83,8.88,31.94.72,48.05-1.82,3.58-4.53,6.55-8.18,8.44-11.33,5.86-23.18,9.6-36.11,7.74-23.36-3.35-43.34-14.28-61.66-28.48-12.31-9.53-21.72-21.41-26.83-36.37-.59-1.73-1.3-3.44-2.19-5.03-2.09-3.75-3.94-3.97-7.06-.99-2.74,2.62-4.01,6.08-5.32,9.5Z"/>
      <path class="st6" d="M1688.09,1742.59c-13.49-32.14-34.53-57.31-64.47-74.89-14.46-8.49-29.6-15.78-45.35-21.64-14.71-5.48-28.64-12.13-39.9-23.43-4.82-4.84-10.64-5.43-16.97-3.85-13.01,3.24-26.09,6.2-39.04,9.69-9.96,2.69-20.41,3.49-29.97,7.69,15.06,3.02,29.4,8,42.58,15.98,10.94,6.62,21.63,13.64,31.93,21.27,24.94,18.47,46.84,39.87,63.77,66.05,1.15,1.78,3.99,3.21,2.52,6.25-2.62.78-4.79-.76-6.99-1.45-18.44-5.8-37.5-8.28-56.62-8.22-13.86.04-27.81,1.96-41.54,4.93-40.85,8.86-76.17,27.39-103.77,59.18-8.36,9.62-15.2,20.41-20.25,32.39-4.9,11.64-8.3,23.67-9.47,36.04-.9,9.46-2.64,19.51,2.9,28.53.13-.25.25-.5.36-.76,1.73-3.85,2.2-8.06,3.74-12.01.06-.16.12-.31.18-.46.26-.73.5-1.31.71-1.79,0-.02.01-.03.02-.04.03-.1.07-.19.12-.28.09-.23.19-.45.28-.64.03-.09.07-.18.11-.25.22-.5.37-.81.49-1.08.04-.09.08-.18.12-.28.03-.09.07-.19.11-.29.12-.3.23-.63.35-1.03,1.63-2.91,3.31-5.8,4.87-8.75,8.11-15.27,18.5-28.64,31.91-39.71,16.2-13.36,34.02-23.5,54.05-30.05,15.99-5.22,32.27-9.14,48.72-12.41,9.3-1.84,18.67-2.15,28.23-1.07,18.99,2.16,36.98,7.46,54.68,14.44,22,8.69,40.36,22.55,57.2,38.73,5.45,5.23,8.83,11.72,10.3,19.06,1.67,8.35,3.36,16.7,3.03,25.37-.02.49-.03.96-.05,1.41-.02.46-.03.89-.04,1.31-.03,1.13-.05,2.14-.03,3.04,0,.23,0,.45.01.66.02.7.07,1.34.15,1.93.01.15.03.29.06.42.02.18.05.34.09.51.03.16.06.31.1.46.21.81.51,1.5.93,2.12.14.21.3.42.47.61.38.44.83.85,1.37,1.24.15.11.3.22.47.32.16.11.33.22.51.33.17.11.36.22.55.32.19.11.39.22.6.33.4.22.85.44,1.33.67.23.12.48.23.73.35.5.24,1.05.49,1.63.75.43.19.89.39,1.37.6.47.21.97.43,1.49.66.67.19,1.27.33,1.79.44.05.01.11.02.16.03.23.03.45.07.67.12.22-10.63,2.55-21.08,1.99-31.82-1.02-19.51-7.42-36.98-19.33-52.23-24.79-31.73-58.66-47.22-97.52-53.48-12.3-1.98-24.63-4.03-37.12-3.47-42.27,1.89-81.66,12.59-115.4,39.4-6.9,5.49-13.15,11.85-18.56,18.89-1.54,2.01-2.8,4-5.62,4.06l-.2-.17c5.19-11.67,13.77-20.82,23.11-29.03,13.99-12.31,29.34-22.87,46.53-30.39,17.91-7.84,36.44-13.31,55.95-16.05,15.87-2.23,31.75-2.34,47.48-1.22,25.14,1.79,48.76,9.3,70.87,22.04,23.44,13.52,38.41,33.87,48.24,57.99,8.11,19.9,11.49,40.96,7.47,62.67-.88,4.75-.4,9.74-.55,14.63,3.73,2.63,6.83,1.91,9.27-1.84,1.49-2.3,3.23-4.52,4.26-7.03,7.33-17.85,13.35-36.15,13.95-55.59,1.04-33.66-5.01-65.96-18.12-97.21ZM1363.22,1864.06s-.02.03-.03.05v-.07l.04-.09s-.01.07-.01.11Z"/>
      <path class="st6" d="M1361.55,1884.34c-.68,4.18-1.91,8.19-3.74,12.01,1.73-3.85,2.2-8.06,3.74-12.01Z"/>
      <path class="st6" d="M1363.23,1863.95s-.01.07-.01.11c-.01.02-.02.03-.03.05v-.07l.04-.09Z"/>
      <path class="st6" d="M1363.23,1863.95s-.01.07-.01.11c-.01.02-.02.03-.03.05v-.07l.04-.09Z"/>
      <path class="st6" d="M1670.56,1902.29c-.62-.1-1.24-.19-1.79-.44.67.19,1.27.33,1.79.44Z"/>
      <path class="st7" d="M1577.05,845.66c1.71.61,2.14,1.75,1.85,3.55-1.56,9.59-3.28,19.16-4.42,28.8-1.05,8.84,1.4,17.57,1.99,26.36.62,9.27,2.5,18.6,4.6,27.83,5.59,24.6,18.52,44.6,37.96,59.95,22.81,18,40.06,18.5,67.11,4.44,23.04-11.97,37.12-32.14,43.17-57.53,3.96-16.61,3.65-33.19-1.34-49.6-1.41-4.64-3.91-9.01-3.41-14.11,4.5,3.11,8.98,6.24,13.49,9.34,21.28,14.6,29.29,36.19,30.86,60.61,1.79,27.69-10.28,50.36-27.76,70.64-6.4,7.42-13.28,14.39-21.94,19.27-2.59,1.46-5.07,3.36-8.29,3.12-1.78-3.16-.57-6.23-.82-9.17-.23-2.74.05-5.54-.39-8.23-.47-2.91-.9-6.96-4.66-6.76-3.28.17-3.15,4.09-3.37,6.72-.45,5.17-.82,10.38-.73,15.56.08,4.89-1.56,8.98-4.48,12.66-13,16.38-29.81,25.89-50.72,27.82-3.95.37-7.98-.09-11.91.4-15.7,1.98-26.93-5.77-36.85-16.53-.82-.89-1.47-1.95-2.17-2.95-.88-1.26-1.82-2.73-3.55-2.29-2.08.53-2.5,2.5-2.77,4.34-.87,6.1.58,11.65,4.74,16.16,3.3,3.58,7.06,6.74,10.69,10.01,2.02,1.82,4.19,3.47,7.1,5.87-9.65,10.11-20.31,17.08-34.41,15.75-10.81-1.02-20.64-5.24-29.11-12.35-7.79-6.54-12.64-14.56-14.69-24.64-3.76-18.49-.77-35.79,7.65-52.44,1.91-3.77,3.85-4.66,7.86-2.63,6.25,3.16,12.89,5.57,19.32,8.39,4.72,2.06,8.97.5,13.16-1.52,1.67-.8,3.28-1.96,3.41-3.97.15-2.29-1.93-2.87-3.54-3.63-1.38-.65-2.86-1.07-4.26-1.68-49.23-21.66-75.84-60.56-85.25-112.38-1.4-7.72-.93-7.85,6.58-9.64,25.84-6.17,48.32-18.56,67.98-36.32,3.6-3.26,7.52-6.17,11.29-9.24Z"/>
      <path class="st0" d="M825.43,1023.8c-15.22,5.84-29.9,13.05-45.65,17.52-6.1,1.73-12.12,3.73-18.43,4.6-.55-15.17-.41-30.31,1.93-45.35,26.82-3.11,52.93-8.93,77.63-20.2,53.77-24.54,95.07-62.48,123.14-114.63.43-.81.83-1.63,1.27-2.44,3.07-5.59,3.1-5.64,8.97-3.19,14.46,6.03,29.48,9.75,44.99,11.96,15.02,2.14,29.91.8,44.76-.89,32.39-3.67,63.83-11.06,92.59-27.04,36.95-20.52,64.22-50.22,82.01-88.56,5.24-11.29,10.15-22.73,15.38-34.5,3.52,4.11,3.07,8.69,3.93,12.73,5.63,26.58,17.38,50.08,34.81,70.79,18.75,22.3,39.16,42.91,63.37,59.32,31.47,21.34,66.33,31.91,104.41,31.6,2.44-.02,4.89,0,7.33-.15,2.61-.15,4.05.94,4.23,3.57,1.33,19.5,8.76,37.24,15.99,55.02-2.45.47-4.01-1.01-5.56-2.53-12.5-12.23-27.3-18.64-44.96-19.66-10.55-.61-20.99-3.34-31.45-5.3-14.64-2.73-29.58-4.27-43.62-9.57-26.45-9.98-50.98-23.32-72.33-42.1-20.72-18.22-38.06-39.39-54.04-61.75-.71-.99-1.27-2.09-1.96-3.09-2.24-3.25-4.79-3.65-7.45-.58-17.05,19.7-39.22,32.76-61.06,45.98-24.27,14.69-49.56,27.64-76.62,36.63-15.02,4.99-30.27,8.89-46.07,10.99-19.71,2.63-39.4,4.01-59.25,3.27-3.99-.15-6.7.91-9.32,4.22-20.67,26.03-46.27,46.7-72.8,66.34-1.96,1.45-4.12,2.79-5.66,4.63-2.1,2.52,1.49,1.35,1.86,2.38-8.27,1.71-16.6,3.14-24.78,5.2-14.81,3.73-28.84,9.21-40.36,19.79-4.44,4.08-7.51,8.69-7.23,14.98Z"/>
      <path class="st15" d="M953.37,2126c-.73,7.23-3.84,14-3.82,21.34-1.06,2.09-2.13,4.18-3.2,6.28-.92.37-1.45,1.05-1.61,2.02-14.62,21.21-52.04,28.19-73.6,10.18-15.1-12.63-26.76-27.42-32.86-46.37-3.09-9.62-.91-18.3,4.69-26,6.52-8.96,14.85-16.16,24.37-21.94,4.94-3.01,9.45-3.29,14.31.52,7.45,5.84,15.4,11.06,20.58,19.31,3.16,5.04,5.24,10.36,4.72,16.42-.63,7.45-4.53,12.13-9.94,12.06-7.25-.1-14.44-7.01-14.42-13.87,0-.3.09-.6.1-.91.07-1.98,2.11-4.39-.34-5.85-2.89-1.72-5.2.43-7.3,2.21-6.08,5.12-8.43,13.7-5.75,20.71,2.72,7.13,11.86,13.24,19.55,12.67,3-.23,6.11-.93,8.86-2.11,23.08-9.89,30.35-40.04,14.17-59.11-7.39-8.7-16.82-15.05-26.49-20.94-23.64-14.42-49.59-23.57-75.56-32.54-29.67-10.23-57.38-24.12-82.76-42.6-1.95-1.42-32.32-29.93-36.7-34.68-5.6-6.45-30.63-36.29-32.26-38.89-24.75-39.36-40.77-82.02-48.69-127.79,3.65.04,7.31-.08,10.95.16,9.73.62,18.68-1.96,27.21-6.37,2.85.73,3.39,2.84,3.89,5.46,1.63,8.67,3.34,17.33,6.1,25.75,7.2,21.96,19.11,41.48,31.08,61,15.93,25.98,36.43,48.03,58.14,69.17,10.97,10.68,22.62,20.46,35.25,29.03,23.56,15.97,48.97,28.66,74.9,40.16,23.57,10.46,45.69,23.16,65.85,39.15,6.41,5.09,12.65,10.71,17.04,17.79,13.1,21.13,15.99,44.32,13.54,68.58Z"/>
      <path class="st7" d="M627.22,897.27c4.06-.46,5.86,2.83,8.19,5.08,13.63,13.13,29.19,23.11,47.5,28.15,25.11,6.91,50.24,7.91,75.62.44,28.47-8.37,53.92-22.25,77.84-39.52,15.11-10.9,29.39-22.62,42.86-35.52,14.67-14.05,25.84-30.77,38.07-46.7,10.4-13.55,19.61-27.95,28.4-42.57,4.87-8.1,8.43-16.9,10.22-26.28.34-1.81.18-3.88,2.53-4.26,2.02-.32,3.42,1.06,4.64,2.46.59.68,1.3,1.46,1.45,2.29,1.81,9.85,6.06,19.2,6.06,29.42,0,7.94-.06,15.89.04,23.83.03,2.64-.9,5.59,1.74,7.66-3.72,13.22-9.74,25.57-14.53,38.38-11.04,29.52-27.35,55.81-49.05,78.7-32.73,34.5-71.44,59.05-118.32,69.03-36.33,7.73-71.74,4.79-104.77-13.63-29.09-16.23-48.02-40.86-58.02-72.49-.45-1.41-.34-2.99-.5-4.49Z"/>
      <path class="st15" d="M656.76,1232.22c1.54-7.42,3.19-14.83,4.58-22.28,1.24-6.65,1.32-13.25-.44-19.94-2.85-10.82-9.49-17.55-20.3-20.06-9.07-2.11-18.17-2.09-27.09.88-6.74,2.24-11.51,6.72-14.23,13.33-.84,2.04-1.46,4.06.42,5.91,3.98,3.91,14.14,2.64,17.08-2.2.79-1.29,1.17-2.83,1.92-4.15,4.64-8.14,13.81-8.97,19.54-1.73,8.64,10.92,4.7,38.73-15.74,42.41-18.24,3.29-30.87-2.57-41.73-15.75-2.86-3.47-6.51-6.45-7.88-11.01,2.08-4.34.82-8.99,1.22-13.49,1.74-19.44,9.52-35.42,25.17-47.73,11.28-8.87,24.01-12.44,37.85-13.5,3.63-.94,6.43,1.22,9.25,2.75,12.76,6.92,22.29,17.14,29.58,29.56-1.12,3.03.82,5.31,2.01,7.68,8.48,16.96,12.21,34.95,12.11,53.83-.07,13.1.24,26.21-2.04,39.19-2,11.4-4.21,22.78-8.96,33.42-9.69,21.72-19.6,43.34-30.43,64.53-4.16,8.14-8.3,16.34-11.83,24.76-8.63,20.58-12.82,42.48-18.5,63.93-.85,3.22-1.46,6.48-1.87,9.84-1.52,12.67-2.96,25.33-4.02,38.06-2.4,28.67-2.09,57.09,3.57,85.4,1.05,5.27,3.55,10.52,1.96,16.16-15.27,3.74-30.53,7.49-45.8,11.23-.22-1.8-.32-3.63-.69-5.4-3.28-15.61-4.91-31.48-3.93-47.32,1.15-18.55,2.26-37.14,4.93-55.58,4.11-28.43,8.56-56.82,19.27-83.64,13.14-32.88,27.01-65.47,40.56-98.19,6.3-15.22,13.94-29.95,17.55-46.16,2.24-10.06,6.47-19.83,5.15-30.5,0,0-.08.19-.08.19l1.84-4.44Z"/>
      <path class="st10" d="M1764.05,1965.46c-3.79-28.76-19.93-46.34-48.47-53.56-4.69-1.19-9.42-2.2-15.32-3.58,10.46-10.9,14.18-24.04,18.03-37.1.93-3.14,1.73-5.59,5.96-5.14,19.86,2.12,35.41-7.11,49.64-19.43,5.77-5,11.14-10.44,16.78-15.59,13.13-11.98,27.22-12.45,41.43-1.93,8.57,6.35,15.03,14.6,19.97,23.62,9.55,17.48,21.78,33.16,32.04,50.13,11.23,18.56,18.35,38.49,20.58,60.09.47,4.56.13,9.12-1.2,13.6-2.22,7.48-6.33,10.69-14,10.15-5.54-.39-10.74-2.22-15.64-4.82-7.55-4.01-15.44-7.5-22.58-12.14-18.55-12.05-38.82-13.48-59.93-11-9.11,1.07-17.8,3.91-27.27,6.7Z"/>
      <path class="st10" d="M959.29,1601.03c8.17-2.41,16.45-4.53,24.47-7.36,4.59-1.62,6.14-.09,6.72,4.09.51,3.69,2.11,7.01,3.92,10.2,5.52,9.73,13.7,15.33,25.08,15.91,2.7.14,5.51-.5,8.35,1.03-2.08,12.97,5.5,20.52,15.78,26.02,9.25,4.95,19.21,7.79,29.86,7.64,4.54-.06,9.09-.01,14.07-.01-1.25,7.92-4.92,12.5-12.55,15.22-33.66,12.01-68.24,20.85-102.55,30.67-42.32,12.11-85.56,19.81-128.78,27.65-24.91,4.51-49.65,9.93-74.71,13.6-1.48.22-2.95.77-5.11-.25.75-4.78,1.04-9.88-1.37-14.58-.83-1.62-1.77-3.35-3.77-3.67-2.37-.38-2.48,2.37-4.01,3.23-.47-.37-1.33-.72-1.36-1.13-.75-8.84-2.39-17.25-7.85-24.74-1.78-2.44-.24-5.38,3.6-5.5,2.44-.08,4.89-.16,7.33-.12,21.1.35,41.8-2.42,62.31-7.29,41.1-9.76,80.94-22.7,117.19-45.04,12.2-7.52,24.04-15.53,35.22-24.49,5.95-4.77,5.92-6.64-.11-11.01-4.2-3.04-8.39-6.05-11.74-10.07Z"/>
      <path class="st2" d="M959.29,1601.03c3.34,4.02,7.54,7.03,11.74,10.07,6.03,4.37,6.06,6.24.11,11.01-11.18,8.96-23.02,16.97-35.22,24.49-36.26,22.35-76.09,35.28-117.19,45.04-20.52,4.87-41.22,7.64-62.31,7.29-2.44-.04-4.89.04-7.33.12-3.83.13-5.38,3.06-3.6,5.5,5.46,7.49,7.1,15.9,7.85,24.74.03.41.89.75,1.36,1.13-.57,3.29-1.54,6.42-3.67,9.08-2.39-.44-3.92,1.04-5.71,2.28-14.37,9.93-30.07,13.07-46.88,7.97-7.85-2.38-14.41-6.92-15.86-16.01-.33-2.04-1.11-3.43-3.27-3.76-.51-6.04.69-12.23-1.62-18.12-.8-2.05.18-3.29,2.02-4.38,18.75-11.02,26.67-28.56,28.92-49.2.54-4.94,2.57-6.48,7.21-7.33,51.85-9.54,103.64-19.35,155.47-29,18.31-3.41,35.92-9.5,54.05-13.6,11.29-2.55,22.62-4.89,33.93-7.32Z"/>
      <path class="st14" d="M1225.89,392.51c-2.95.84-5.41-.49-7.77-1.89-24.94-14.84-52.12-23.64-80.47-28.57-16.51-2.87-33.36-2.71-50.15-2.56-27.91.25-55.02,4.83-81.8,12.5-21.03,6.02-40.1,16-58.91,26.73-13.77,7.86-27.63,15.54-41.42,23.36-13.31,7.55-25.25,16.84-36.7,27.06-12.82,11.44-24.34,23.88-33.88,38.06-10.41,15.47-19.43,31.7-24.57,49.83-.63,2.24-.89,4.91-3.26,6.36-1-26.07,6.43-50.08,18.26-72.9,20.06-38.72,49.97-68.47,86.16-91.93,55.66-36.08,116.59-54.17,183.23-49.95,42.11,2.67,80.97,14.94,113.38,43.36,6.85,6,13.61,12.24,17.9,20.55Z"/>
      <path class="st7" d="M567.2,1075.26c2.78-.13,4.45,1.75,6.1,3.52,15.7,16.86,35.88,24.05,57.98,27.88,13.14,2.28,25.91,1.63,38.87-.65,12.25-2.15,21.78-9.05,30.51-17.06,7.37-6.76,14.92-13.47,20.54-21.96,1.45-2.19,3.34-4.42,6.33-4.92,1.48,18.27,3.61,36.46,7.64,54.35,4.84,21.47,11.63,42.38,18.77,63.19,10.8,31.48,21.92,62.88,28.93,95.52.57,2.68,1.13,5.36,1.67,7.93-2.11,2.64-4.71,1.46-6.89,1.14-17.91-2.62-35.35-7.02-51.91-14.44-9.17-4.11-8.92-4.4-7.67-14.71,3.51-28.82-.24-56.92-11.57-83.48-8.13-19.07-20.91-35.54-38.53-46.86-23.45-15.06-48.77-16.04-74.66-6.39-3.4,1.27-6.68,2.86-10.02,4.3.67-2.96-.85-5.34-2.11-7.76-6.52-12.55-10.62-25.95-13.98-39.6Z"/>
      <path class="st0" d="M1463.92,1416.46c2.13-.08,4.15-.24,6.1-1.49,10.01-6.43,19.95-13.02,28.59-21.21,21.72-20.58,42.19-42.31,59.06-67.19,8.8-12.98,13.92-27.78,20.82-41.7,1.19-2.4.65-4.56.13-7.03-1.33-6.23,1.17-9.45,7.01-7.82,14.66,4.09,28.28-1.52,42.3-3.36,4.6-.6,8.82-2.37,12.85-4.58,13.08-7.17,27.19-12.36,39.33-21.38,22.15-16.48,35.78-38.53,40.32-65.3,3.38-19.94-.81-38.9-16.22-53.89-3.16-3.07-6.66-5.63-10.78-6.69-11.44-2.93-22.7-5.36-35-3.74-12.15,1.6-23.29,6.99-35.59,7.58-6.76.32-13.25.66-19.18-3.22,8.69-5.52,18.72-9.07,25.23-17.76,2.14-2.85,5.64-1.95,8.59-1.92,12.07.11,23.71-1.63,34.77-6.77,14.27-6.64,25.71-16.25,33.12-30.34.41-.77,1.18-1.36,1.89-2.16,6.75,2.91,11.39,7.82,15.19,14,17.43,28.4,21.08,59.45,18.08,91.84-1.99,21.58-8.57,41.6-18.49,60.93-16.24,31.63-42.31,49.1-76.42,55.25-17.45,3.14-35.19,4.12-52.86.7-1.69-.33-3.78-1.1-4.76,1.14-.7,1.61.42,3.11,1.6,3.96,3.7,2.67,2.42,5.71,1.03,8.89-5.52,12.6-10.98,25.27-19,36.53-17.2,24.17-35.29,47.64-56.02,68.96-10.49,10.79-21.89,20.44-34.62,28.46-5.56,3.51-5.63,3.38-9.58-1.52-2.48-3.07-5-6.11-7.5-9.17Z"/>
      <path class="st1" d="M999.11,1326.07c1.19.91,2.26,2.06,3.57,2.71,14.01,6.91,18.69,20.43,14.05,36.3-3.34,11.42-10.88,19.7-20.29,26.01-17.65,11.82-35.56,23.44-56.83,27.93-6.2,1.31-12.53,1.98-18.82,2.84-1.79.24-3.69-.05-5,1.59-30.79-19.72-61.14-40.1-90.58-61.81,3.17-2.07,3.42-5.64,3.88-8.75,2.93-19.87,15.1-31.39,33.35-37.57,6.67,6.19,13.25,12.44,21.6,16.48,18.47,8.93,38,12.74,58.3,10.77,10.41-1.01,21.15-2.31,30.28-8.54,9.07-1.86,17.91-4.45,26.49-7.96ZM889.2,1370.5c10.48.18,17.02-4.91,17.15-13.36.13-8.33-5.53-13.9-14.32-14.09-10.58-.23-16.67,4.65-16.8,13.45-.14,9.49,4.2,13.83,13.97,14ZM934.57,1346.7c-9.59.04-13.69,4.33-13.49,14.14.15,7.54,2.61,9.68,11.09,9.67,9.84,0,16.55-5.44,16.35-13.22-.18-7.11-4.81-10.62-13.96-10.59Z"/>
      <path class="st6" d="M1216.77,1869.45c4.2.26,6.15,3.77,8.54,6.34,20.71,22.3,46.62,35.81,75.43,43.98,10.13,2.87,20.56,5.36,31.33,4.92,2.1-.08,4.37-.06,6.31.62,5.22,1.83,10.17.97,15.12-.81-.09,12.84.2,25.59,3.36,38.19,5.09,20.32,15.82,37.62,28.34,53.92,2.86,3.72,7.23,6.28,11.85,10.17-12.65,3.29-24.26,4.03-35.92,1.47-12.86-2.82-25.13-7.47-37.1-12.95-14.4-6.59-26.11-16.3-36.76-28.14-28.09-31.24-50.25-66.03-66.24-104.81-1.72-4.18-4.04-8.21-4.29-12.9Z"/>
      <path class="st1" d="M1187.26,1840.04c4.94,13.39,8.87,27.11,13.99,40.46,7.23,18.83,15.52,37.12,25.49,54.62,2.33,4.08,2.49,7.24.88,11.78-8.23,23.23-10.04,46.97-3.47,70.98,2.19,8.01,3.8,16.03,3.05,24.35-.93,10.3-3.35,13.16-13.34,15.74-4.12,1.06-8.31,1.97-12.53,2.48-6.1.73-12,2.06-17.64,4.5-.41-1.47-.63-3.02-1.27-4.38-11.23-23.57-14.42-48.88-15.43-74.48-.72-18.31-.39-36.68-.05-55.01.16-8.48.84-17.05,2.34-25.39,2.81-15.56,6.91-30.86,11.69-45.93,2.09-6.57,2.36-13.74,6.29-19.72Z"/>
      <path class="st1" d="M1205.01,1617.58c3.65-1.11,7.18.26,11.36-.04.57,5.29-1.79,9.32-3.42,13.34-13.59,33.57-21.77,68.59-27.93,104.12-4.75,27.35-8.38,54.92-13.75,82.14-7.08,35.9-14.63,71.72-23.42,107.27-4.46,18.05-8.06,36.27-13.29,54.18-5.49,18.81-7.22,38.41-7.08,58,.14,19.23,8.23,36.07,17.66,52.31,1.52,2.62,3.3,5.08,5.49,8.42-9.61,2.66-15.22,9.53-20.65,16.88-5.23,7.08-13.8,8.46-21.58,11-9.57-20.32-12.39-41.76-11.31-64.03.43-8.83,2.21-17.5,2.11-26.4-.11-9.78,1.79-19.33,5.27-28.57,10.12-26.82,16.36-54.87,25.64-81.97,6.82-19.91,9.56-40.86,14.32-61.3,7.51-32.3,15.52-64.49,23.55-96.67,10.76-43.13,21.7-86.22,32.69-129.29,1.64-6.44,1.68-13.22,4.34-19.42Z"/>
      <path class="st14" d="M1603.82,482.67c-6.56-13.64-16.13-25.19-26.3-36.11-28.42-30.54-62.01-54.24-99.78-71.63-19.95-9.18-41.28-14.5-63.23-17.38-20.97-2.75-41.96-2.62-62.88-1.4-22.94,1.34-45.03,7.5-66.37,15.98-12.15,4.83-24.7,8.77-35.94,15.82-5.17,3.24-9.44,7.78-15.13,10.21.25-.88.82-1.82.69-2.64-1.5-9.37,4.81-14.34,10.85-19.46,24.84-21.04,53.72-33.97,85.43-39.53,80.51-14.12,154.07,2.83,219.25,52.68,25.11,19.2,44.62,43.3,56.97,72.75.71,1.69,1.35,3.4,1.98,5.12q3.62,9.8-5.56,15.59Z"/>
      <path class="st3" d="M1444.33,1421.55c-.18,2.54-.36,5.08-.54,7.63-8.04,2.42-16.04,1.76-24.34.98-20.53-1.93-41.09-5.01-61.83-1.34-6.84,1.21-13.9,1.33-20.84,2-47.5,4.59-93.54,14.96-137.9,32.71-11.02,4.41-22.34,8.08-33.43,12.31-4.41,1.68-7.02.79-10.03-3.11-12.09-15.74-28.36-25.65-47.14-31.38-8.58-2.62-17.74-1.83-26.39-.83-16.7,1.93-32.8,6.53-47.02,16.16-2.53,1.71-4.85,3.45-6.38,6.4,5.05,2.43,9.25-.18,13.6-.7,3.77-.45,7.47-.16,9.74,3.51,2.08,3.38,1.93,7.11.35,10.52-1.49,3.23-4.78,4.73-8.01,5.71-5.57,1.68-10.74,4.41-16.18,6.25-9.76,3.31-17.87,9.13-25.85,15.22-4.61,3.51-8.94,7.53-9.6,13.91-3.03-.14-3.94,2.2-4.83,4.35-.77,1.86-.91,4.1-3.49,4.52-2.01-30.04,21.84-46.61,42.59-49.73,5.42-.82,10.97-1.22,15.93-3.86,1.82-.97,4.05-2.16,3.06-4.83-.76-2.07-2.94-2.16-4.7-1.93-7.22.9-14.42,2-22.36,3.13-.44-4.01,1.36-7.17,3.38-9.93,15.55-21.32,34.86-37.43,61.21-43.63,6.04-1.42,11.97-1.21,18.12-.18,21.83,3.64,39.59,14.43,53.07,31.46,6.34,8.02,12.01,9.23,21.53,6.46,29.86-8.68,59.39-18.45,89.33-26.83,39.74-11.13,80.02-19.51,121.43-21.23,17.37-.72,34.09,1.9,49.54,10.43,2.91,1.61,6.16,2.77,7.98,5.87Z"/>
      <path class="st10" d="M1634.32,2094.26c-5.97,5.03-12.69,6.96-19.51,8.43-50.38,10.89-100.54,10.78-150.53-2.68-36.67-9.87-70.19-26.32-101.61-47.37-1.26-.85-2.46-1.8-3.61-2.8-.39-.34-.54-.98-1.4-2.65,8.56.47,16.53,1.54,24.52.58,10.34-1.25,20.64-2.5,30.16-7.04,2.72-1.3,5.04-1.41,7.77-.12,36.27,17.21,75.12,25.01,114.42,30.99,17.8,2.71,35.76,4.36,53.52,7.26,16,2.61,31.33,7.7,46.27,15.41Z"/>
      <path class="st14" d="M655.51,676.88c-12.25,7.96-24.65,15.77-34.84,26.39-13.76,14.35-25.06,30.63-35.4,47.5-15.23,24.86-25.86,51.76-31.93,80.26-4.77,22.4-5.62,44.89-1.87,67.84,3.88,23.73,12,45.85,21.25,67.7,3.55,8.39,8.66,16.22,14.62,23.08,5.11,5.88,7.76,13.07,12.29,19.17.43.58.05,1.76.05,2.67-11.76-5.96-19.94-15.84-28.13-25.71-19.58-23.58-30.07-51.2-36.85-80.73-8.69-37.87-9.01-75.43.59-113.22,6.24-24.55,18.06-45.8,34.66-64.64,10.09-11.46,20.75-22.38,31.79-32.92,8.67-8.28,18.71-14.64,29.3-20.18,2.8-1.47,5.39-2.32,8.64-1.1,5.1,1.92,10.82,1.53,15.85,3.9Z"/>
      <path class="st14" d="M807.06,480.49c-17.11.48-31.77,8.09-45.99,16.41-13.72,8.02-25.7,18.36-37.27,29.32-17.5,16.57-36.47,31.48-57.22,43.79-13.46,7.98-28.66,11.99-43.92,15.03-19.35,3.85-38.72,3.07-58-1.24-4.59-1.03-8.51-3.24-12.67-5.1-3.03-1.35-5.88-3.4-9.51-2.46-1.56-2.16-3.12-4.32-5.57-7.71,9.83,1.66,18.25,2.95,26.62,4.53,19.87,3.75,38.98,1.04,57.29-7.09,23.98-10.64,45.33-25.18,63.56-44.15,18.54-19.29,39.17-35.92,62.64-48.87,20.27-11.18,41.58-19.12,65.05-19.91,1.52-.05,3.06-.07,4.58.04.52.03,1.02.47,2.25,1.09-3.93,8.75-7.88,17.55-11.84,26.34Z"/>
      <path class="st3" d="M1205.01,1617.58c-2.66,6.2-2.7,12.98-4.34,19.42-10.99,43.07-21.93,86.16-32.69,129.29-8.03,32.18-16.03,64.37-23.55,96.67-4.76,20.44-7.5,41.39-14.32,61.3-9.28,27.1-15.52,55.14-25.64,81.97-3.49,9.24-5.38,18.79-5.27,28.57.1,8.9-1.68,17.57-2.11,26.4-1.08,22.27,1.74,43.71,11.31,64.03-13.47,6.59-13.4,6.56-18.98-6.25-12.86-29.55-14.22-60.26-9.87-91.71,4.52-32.7,14.4-63.42,29.75-92.81,13.45-25.74,23.11-53.28,29.33-81.72,7.11-32.54,15.71-64.66,24.4-96.79,9.33-34.46,17.23-69.31,25.96-103.94,2.61-10.36,6.01-20.51,8.83-30.81,1.15-4.19,3.08-5.81,7.19-3.6Z"/>
      <path class="st3" d="M655.01,1236.48c1.32,10.67-2.92,20.44-5.15,30.5-3.6,16.21-11.24,30.94-17.55,46.16-13.55,32.72-27.43,65.31-40.56,98.19-10.71,26.82-15.16,55.21-19.27,83.64-2.66,18.45-3.78,37.03-4.93,55.58-.98,15.84.65,31.7,3.93,47.32.37,1.77.47,3.6.69,5.4-14.36,3.76-14.54,3.8-17.28-10.27-2.34-12.01-3.07-24.2-3.19-36.43-.34-36.09.64-72.26,9.19-107.37,13.03-53.53,31.78-104.95,61.92-151.73,11.66-18.09,23.75-36.19,29.73-57.34.37-1.32.89-2.96,2.47-3.65Z"/>
      <path class="st2" d="M837.94,1436.81c-10.17-17.43-17.16-35.96-20.67-58.03,8.98,6.31,16.7,10.88,23.31,17.07-.31,3.67,1.51,6.63,4,8.77,8.33,7.16,17.38,13.01,28.88,13.48,13.91,7.6,26.77,16.86,39.77,25.84,21.53,14.88,42.32,30.83,64.91,44.16.78.46,1.51.99,2.87,1.88-4.38,4.78-7.57,9.5-10.52,14.37-15.72,1.13-31.21-.64-45.76-6.52-16.1-6.51-31.39-14.83-45.89-24.51-11.53-7.7-20.72-17.94-30.44-27.62-2.28-2.28-3.93-5.67-7.95-5.5,0,0-.03-.05-.03-.05.28-1.93-.39-3.15-2.47-3.34Z"/>
      <path class="st7" d="M1620.35,614.25c-8.28,3.2-17.1,4.01-25.71,5.68-2.02.39-4.29.11-6.32-.38-2-.48-4.34-1.21-4.68-3.74-.3-2.22,1.84-2.9,3.22-4,5.71-4.53,11.27-9.21,16.6-14.23,11.83-11.14,22.2-23.33,29.99-37.66,7.99-14.69,16.49-29.08,22.79-44.67,5.18-12.82,7.36-26.27,9.46-39.72.93-5.93,2.7-11.84,2.09-18.05-.4-4.06-.7-7.9-4.4-10.45,6.44-10.28,13.27-20.33,17.43-32.03,3.31,2.05,3.27,4.98,4.04,7.44,4.12,13.08,7.41,26.28,9.34,39.95,4.33,30.6-4.71,58.01-19.09,84.01-13.31,24.07-31.25,44.23-55.01,58.73-5.46,3.33-5.38,3.46.25,9.11Z"/>
      <path class="st2" d="M1211.25,1669.62c19.49-4.6,39.09-8.78,58.44-13.9,27.01-7.15,53.82-15.08,80.75-22.54,18.75-5.2,37.57-10.13,57.29-9.51,2.76.09,5.41-.72,8.09-1.11,4.38-.63,9.01-1.86,13.21.97-13.29,4.41-26.61,8.72-39.85,13.24-19.65,6.72-38.9,14.4-57.39,23.95-17.65,9.12-36.27,16.04-54.51,23.83-23.3,9.94-46.31,20.52-69.17,31.43-2.37,1.13-4.57,2.95-8.29,2.54,3.29-16.54,6.39-32.93,11.43-48.91Z"/>
      <path class="st10" d="M1741.18,2106.14c9.06-5.22,8.37-13.67,6.24-21.74-2.08-7.9-5.17-15.62-8.62-23.05-7.29-15.69-10.31-32.43-12.09-49.33-1.28-12.12-3.49-24.02-6.08-35.85-1.03-4.71-3.71-8.91-7.2-12.55-9.28-9.68-20.67-15.77-33.01-20.57-19.5-7.58-36.98-18.5-52.05-33.07-8.28-8.01-18.22-14.37-24.38-24.49-1.8-2.95-5.37-5.45-2.35-9.58,10.08,7.37,19.32,15.8,28.87,23.78,17.53,14.65,37.36,22.54,59.86,24.76,10.67,1.05,20.98,3.9,30.68,8.61,17.24,8.38,26.37,21.62,25.95,41.39-.4,18.88-1.65,37.82,1.33,56.66.86,5.43,1.85,10.79,3.46,16.06,4.47,14.71,6.14,29.81,5.96,45.16-.05,4.08-1.11,7.82-2.9,11.41-3.95,7.9-5.94,8.25-13.68,2.4Z"/>
      <path class="st0" d="M1654.08,1291.1c-7.41,27.33-2.81,58.14,19.9,87.2-16.64,7.53-33.35,9.44-50.43,3.11-15.41-5.71-27.13-16.02-35.44-30.29-2.69-4.62-3.23-8.25.02-13.28,8.3-12.81,14.85-26.6,19.68-41.14.87-2.61,1.45-5.45,5.33-4.82,13.66,2.22,27.24-.94,40.93-.78Z"/>
      <path class="st13" d="M617.97,1592.05c1.59-5.64-.9-10.9-1.96-16.16-5.66-28.31-5.98-56.73-3.57-85.4,1.07-12.73,2.51-25.39,4.02-38.06.4-3.36,1.01-6.62,1.87-9.84,5.68-21.45,9.87-43.36,18.5-63.93,3.53-8.43,7.67-16.62,11.83-24.76,10.83-21.19,20.74-42.8,30.43-64.53,4.75-10.64,6.95-22.02,8.96-33.42,2.28-12.98,1.97-26.09,2.04-39.19.1-18.88-3.63-36.88-12.11-53.83-1.19-2.38-3.13-4.66-2.01-7.68,6,5.01,9.9,11.62,12.67,18.66,9.27,23.57,13.34,48.19,11.87,73.41-1.08,18.65-6.47,36.46-13.48,53.83-7.89,19.53-16.93,38.46-26.4,57.28-14.72,29.23-25.71,59.76-29.86,92.63-2.02,15.97-4.07,31.97-6.39,47.92-.52,3.6-.36,7.31-.51,10.97-.41,10.04-.54,20.07-1.26,30.13-.91,12.73.87,25.52,3.51,38.08.25,1.19.86,2.29,1.11,3.48,1.41,6.72.85,7.63-5.73,9.56-1.16.34-2.35.59-3.53.87Z"/>
      <path class="st14" d="M1679.28,1889.63c-.88,4.75-.4,9.74-.55,14.63-.92-.12-1.67-.13-2.63-.27-.24-.04-.49-.08-.76-.14-.09-.02-.19-.04-.29-.06l-3.66-1.35c.22-10.63,2.55-21.08,1.99-31.82-1.02-19.51-7.42-36.98-19.33-52.23-24.79-31.73-58.66-47.22-97.52-53.48-12.3-1.98-24.63-4.03-37.12-3.47-42.27,1.89-81.66,12.59-115.4,39.4-6.9,5.49-13.15,11.85-18.56,18.89-1.54,2.01-2.8,4-5.62,4.06l-.2-.17c5.19-11.67,13.77-20.82,23.11-29.03,13.99-12.31,29.34-22.87,46.53-30.39,17.91-7.84,36.44-13.31,55.95-16.05,15.87-2.23,31.75-2.34,47.48-1.22,25.14,1.79,48.76,9.3,70.87,22.04,23.44,13.52,38.41,33.87,48.24,57.99,8.11,19.9,11.49,40.96,7.47,62.67Z"/>
      <path class="st14" d="M763.28,1000.58c-2.33,15.04-2.47,30.18-1.93,45.35-.62,11.98,1.86,23.64,3.92,35.29,5.07,28.73,10.41,57.42,18.18,85.58,6.48,23.49,13.44,46.83,21.05,69.99,7.32,22.28,12.49,45.14,17.15,68.1,1.69,8.3-.57,16.54-2.11,24.44-1.35,6.92.16,14.11-2.68,20.75-.59,1.38-.7,2.97-2.12,3.88-3.12-7.87-1.71-16.25-2.61-24.37-2.73-24.66-9.33-48.48-14.94-72.52-6.04-25.88-15.57-50.67-23.89-75.85-9.28-28.07-18.94-55.97-23.53-85.41-4.71-30.2-3.61-60.18.51-90.26.51-3.76,1.84-5.56,5.7-5.26,2.42.19,4.86.18,7.29.26Z"/>
      <path class="st9" d="M1187.26,1840.04c-3.92,5.98-4.2,13.15-6.29,19.72-4.78,15.07-8.88,30.37-11.69,45.93-1.51,8.34-2.19,16.91-2.34,25.39-.34,18.33-.67,36.7.05,55.01,1.01,25.6,4.19,50.91,15.43,74.48.65,1.35.86,2.91,1.27,4.38-4.73,3.92-6.29,9.52-8.13,15.03-1.31,3.94-1.76,8.42-6.2,11.3-20.91-25.74-32.49-54.1-27.28-87.94,2.42-15.68,4.7-31.31,9.85-46.45,2.74-8.04,4.02-16.57,5.87-24.9,8.12-36.57,17.26-72.91,24.41-111.69,4.1,7.37,4.41,13.6,5.04,19.74Z"/>
      <path class="st10" d="M1372.56,1941.04c4.16,5.36,6.3,11.79,9.34,17.73,4.07,7.95,9.22,14.93,15.44,21.4,15.54,16.18,32.42,30.37,52.77,40.28,14.69,7.15,30.19,11.27,46.11,14.02,14.95,2.59,30.08,4.08,45.12,6.05,17.74,2.32,35.85,2.17,53.22,7.08,22.89,6.47,43.88,16.53,61.32,33.1,2.16,2.05,3.36,3.43,4.41,7.56-17.49-12.15-36.82-20.07-57.48-24.9-15.19-3.55-30.7-4.94-46.15-6.77-39.51-4.68-78.26-12.66-115.61-26.71-15.89-5.98-29.9-15.12-42.98-25.77-1.41-1.15-2.85-2.38-3.89-3.85-12.59-17.76-20.91-37.11-21.63-59.22Z"/>
      <path class="st13" d="M949.55,2147.34c-.02-7.34,3.08-14.11,3.81-21.34,2.45-24.26-.44-47.46-13.54-68.59-4.39-7.08-10.63-12.7-17.04-17.79-20.16-15.99-42.28-28.69-65.85-39.15-25.93-11.51-51.34-24.19-74.9-40.17-12.63-8.56-24.28-18.34-35.25-29.03-21.71-21.14-42.21-43.19-58.13-69.16-11.97-19.52-23.88-39.05-31.09-61-2.76-8.42-4.47-17.08-6.1-25.75-.49-2.62-1.04-4.73-3.89-5.46,4.49-3.01,8.98-6.02,13.72-9.19,4.08,30.73,14.76,59.07,26.56,87.08,7.19,17.07,17.12,32.13,29.96,45.6,39.92,41.89,86.72,73.9,139.1,98.01,20.86,9.6,40.4,21.43,59.26,34.38,20.62,14.17,35.12,32.75,39.79,57.99.72,3.89,1.76,7.73,2.79,11.55,4.31,16.08,1.11,31.36-4.96,46.32-.89,2.2-1.65,4.68-4.24,5.7Z"/>
      <path class="st4" d="M1071.41,1694.17c-4.78,11.97-8.91,22.06-12.82,32.23-1.22,3.18-3.4,4.72-6.46,5.86-22.38,8.29-45.23,14.73-68.99,17.56-10.95,1.3-21.32-.46-30.36-7.34-3.7-2.82-6.94-5.95-7.64-11.67,41.5-11.76,83.51-21.8,126.27-36.64Z"/>
      <path class="st14" d="M567.2,1075.26c3.37,13.66,7.46,27.06,13.98,39.6,1.26,2.42,2.78,4.8,2.11,7.76-.8.45-1.59.9-2.38,1.35-9.76,5.49-9.89,5.57-15.97-3.52-17.74-26.48-25.24-55.9-23.37-87.48.81-13.73,5.19-26.84,13.37-38.89,4.34,1.96,6.4,6.21,9.58,9.18,3.31,3.1,6.43,6.4,9.64,9.61-6.02,9.04-8.47,19.25-9,29.86-.55,10.88-.45,21.79,2.05,32.52Z"/>
      <path class="st10" d="M1634.78,1860.39c-3.54.03-5.27-2.77-7.44-4.82-24.88-23.55-54.61-37.29-88.12-42.95-24.62-4.16-49.07-2.27-73.35,3.33-10.69,2.46-21.36,4.74-31.44,9.29-2.28,1.03-4.95,2.85-7.77.88,6.09-6.17,13.55-10.21,21.39-13.63,19.94-8.7,40.93-13.89,62.19-17.87,12.22-2.29,24.35.68,36.12,3.73,27.53,7.15,52.36,19.75,73.52,38.97,6.94,6.31,14.17,12.65,14.91,23.07Z"/>
      <path class="st7" d="M840.44,1440.2c4.03-.17,5.67,3.23,7.95,5.5,9.72,9.68,18.91,19.92,30.44,27.62,14.5,9.68,29.79,18.01,45.89,24.51,14.55,5.88,30.03,7.65,45.76,6.52-.43,4.03-3.82,4.42-6.66,5.09-13.6,3.22-27.28,6.15-40.86,9.45-5.95,1.44-10.63-.85-15.4-3.79-26.22-16.15-46.33-38.17-61.98-64.46-1.97-3.31-4.96-6.22-5.13-10.45Z"/>
      <path class="st0" d="M1179.59,1615.97c-9.1,31.59-15.28,63.6-24.72,94.79-3.37.11-2.79-2.83-3.34-4.53-5.72-17.45-8.69-35.55-12.06-53.53-1.62-8.65-1.11-9.47,7.05-13.4,12.23-5.9,22.54-14.32,33.08-23.33Z"/>
      <path class="st10" d="M642.4,1726.47c6.17-2.55,12.43-4.92,18.48-7.74,2.91-1.36,4.27-.84,5.72,1.92,4.4,8.35,3.77,13.83-2.65,20.81-14.97,16.3-33.67,19.65-54.46,15.73-9.69-1.83-18.89-5.06-27.12-10.52-6.88-4.56-13.34-9.69-15.43-18.37,2-.15,3.42.95,4.86,2.14,6.7,5.52,14.53,8.88,22.67,11.55,15.02,4.94,28.78,2.01,41.4-7.06,2.95-2.12,5.93-4.42,6.51-8.46Z"/>
      <path class="st10" d="M1019.98,1565.39c-1.27,11.28,6.71,17.15,14.05,22.97,7.96,6.31,17.23,10.01,27.38,11.72,4.19.7,9.28-.04,12.2,4.49-5.26,0-10.12,1.34-14.88,3.65-8.86,4.31-18.3,6.33-28.19,6.46-5.57.07-10.09-1.91-13.75-5.94-8.16-8.97-11.29-19.29-7.84-31.16,1.68-5.79,4.85-10.4,11.03-12.19Z"/>
      <path class="st10" d="M679.31,1729.98c2.16.33,2.94,1.71,3.27,3.76,1.46,9.09,8.01,13.62,15.86,16.01,16.8,5.1,32.51,1.96,46.88-7.97,1.79-1.24,3.32-2.72,5.71-2.28-6.7,14.92-18.52,24.03-33.84,28.37-10.93,3.1-22.27,3.58-33.6,1.52-2.88-.52-5.75-1.2-5.89-4.59-.48-11.64-4.66-23.49,1.6-34.82Z"/>
      <path class="st2" d="M622.86,1678.59c-3.25-6.68-3.28-6.89,3.34-8.34,17.57-3.84,35.18-7.49,52.78-11.22-.7,6.49-3.27,12.15-7.09,17.43-7.35,10.15-18.7,14.11-30.91,11.78-5.57-1.06-9.12-6.21-14.94-6,0,0-.18-.2-.18-.2-.05-.95-.56-1.48-1.49-1.62,0,0-.29-.39-.29-.39.02-.84-.39-1.31-1.21-1.43Z"/>
      <path class="st2" d="M563.06,1684.17c15.2-5.18,31.16-6.84,47.28-10.77-.35,8.32-.51,16.18,4.89,22.67,2.31,2.77,4.66,5.51,6.99,8.26-.78.98-1.71,1.87-3.03,1.64-9.5-1.64-19.28-2.27-28.35-5.57-10.16-3.69-20.79-6.95-27.77-16.24Z"/>
      <path class="st10" d="M626.03,1682.23c5.82-.21,9.38,4.94,14.94,6,12.21,2.33,23.56-1.63,30.91-11.78,3.82-5.28,6.4-10.94,7.09-17.43,4.43-1.04,8.84-2.18,13.28-3.11,6.59-1.39,6.86-1.24,6.83,5.15-.05,12.91-5.24,23.55-16.94,29.04-16.55,7.76-33.52,7.7-49.75-1.76-2.54-1.48-5.4-2.89-6.37-6.12Z"/>
      <path class="st4" d="M1123.92,1672.55c5.86,23.14,6.93,17.2-10.34,28.24-8.95,5.72-18.39,10.66-27.64,15.9-.71.4-1.66.39-3.42.77,3.32-11.27,8.77-20.96,13.32-31.02.81-1.8,2.61-2.49,4.26-3.24,7.74-3.49,15.49-6.94,23.81-10.65Z"/>
      <path class="st2" d="M642.4,1726.47c-.58,4.04-3.56,6.34-6.51,8.46-12.62,9.07-26.38,12-41.4,7.06-8.14-2.68-15.97-6.03-22.67-11.55-1.45-1.19-2.86-2.29-4.86-2.14h0c.33-1.71-.23-3-1.84-3.77-1.21-1.43-1.99-3-1.37-5.54,8.41,2.6,16.6,5.68,25.16,7.48,17.85,3.75,35.67,3.42,53.5,0Z"/>
      <path class="st3" d="M637.13,1122.92c-13.84,1.06-26.57,4.63-37.85,13.5-15.65,12.31-23.42,28.29-25.17,47.73-.4,4.5.86,9.15-1.22,13.49-7.04-17.02-3.42-33.56,3.03-49.6,6.78-16.86,41.27-33.89,61.21-25.11Z"/>
      <path class="st10" d="M984.23,1526.37c2.58-.42,2.72-2.66,3.49-4.52.89-2.15,1.8-4.49,4.83-4.35,1.4,16.58,11.97,25.93,25.82,32.64,2.97,1.44,6.55,1.38,9.21,3.65-5.73,3.29-12.11,3.88-18.5,4.23-3.13.17-6.24-.68-8.64-2.61-9.3-7.46-16.84-16.01-16.21-29.05Z"/>
      <path class="st0" d="M563.06,1684.17c6.98,9.29,17.61,12.55,27.77,16.24,9.08,3.29,18.86,3.92,28.35,5.57,1.32.23,2.25-.66,3.03-1.64,3.87.35,6.1,3.66,9.46,4.38-.41,3.73-2.84,2.66-4.29,2.74-17.59,1.03-34.64-1.86-51.2-7.67-7.4-2.6-13.5-6.92-16.95-14.39-2.03-4.4-.24-5.52,3.82-5.23Z"/>
      <path class="st0" d="M680.25,1576.09c-9.92,3.48-20.27,5.44-30.45,8.04-2.29.58-3.38-.49-3.86-2.56-.54-2.36-1.1-4.72-1.6-7.09-.52-2.47.68-4.02,2.8-5.09,7.05-3.54,26.71-.44,32.64,5.17.18.17.17.53.46,1.52Z"/>
      <path class="st0" d="M873.46,1418.1c-11.5-.47-20.55-6.32-28.88-13.48-2.49-2.14-4.32-5.1-4-8.77,11.62,6.45,22.54,13.92,32.88,22.26Z"/>
      <path class="st7" d="M1120.41,1652.06c-2.49,4.38-6.58,6-11.73,7.25.5-8.74,7.66-5.54,11.73-7.25Z"/>
      <path class="st14" d="M1363.22,1864.06s-.02.03-.03.05v-.07l.03.02Z"/>
      <path class="st14" d="M1363.46,1879.8c-.15.35-.31.69-.49,1.08.22-.5.37-.81.49-1.08Z"/>
      <path class="st7" d="M837.94,1436.81c2.08.19,2.75,1.42,2.47,3.34-1.79-.4-2.09-1.9-2.47-3.34Z"/>
      <path class="st10" d="M1031.01,1553.4c1.07-1.47,2.51-1.58,4.1-1.12-1.21.94-2.54,1.47-4.1,1.12Z"/>
      <path class="st0" d="M1490.08,957.6c-1.93-.52-2.45-1.83-2.01-3.66,1.74.63,2.03,2.06,2.01,3.66Z"/>
      <path class="st10" d="M565.12,1724.53c1.61.77,2.18,2.06,1.84,3.78-1.68-.74-1.97-2.16-1.84-3.78Z"/>
      <path class="st14" d="M1227.63,394.9c-.67-.79-1.33-1.58-2-2.38,1.49.1,1.85,1.15,2,2.38Z"/>
      <path class="st10" d="M622.86,1678.59c.82.13,1.23.6,1.21,1.43-.96,0-1.36-.49-1.21-1.43Z"/>
      <path class="st10" d="M624.35,1680.41c.93.14,1.44.67,1.49,1.62-1.1.02-1.6-.52-1.49-1.62Z"/>
      <path class="st7" d="M1723.38,871.41c-.72-1.5.2-1.7,1.35-1.7-.45.57-.9,1.13-1.35,1.7Z"/>
      <path class="st7" d="M625.94,893.46c1.06.7,1.43,1.63.95,2.85-1-.72-1.2-1.71-.95-2.85Z"/>
      <path class="st13" d="M944.74,2155.64c.16-.98.69-1.66,1.61-2.03.02,1.12-.54,1.77-1.61,2.03Z"/>
      <path class="st14" d="M829.98,803.47c-2.65-.52-5.85-1.54-5.97-5.87-.11-3.96-.11-7.93-.06-11.89.14-9.89-2.96-18.53-9.79-25.76-.42-.44-.88-.85-1.25-1.33-2.82-3.69-2.41-5.49,2.01-6.05,7.86-.99,13.55-5.54,18.3-11.09,5.11-5.98,10.41-11.95,13.9-19.18.65-1.34,1.5-2.73,2.63-3.65,3.1-2.53,6.98-1.05,7.13,2.97.54,14.26,5.54,26.6,14.74,37.46,2.98,3.52,2.42,5.37-2.04,7.87-6.4,3.58-12.66,7.36-18.24,12.08-6.58,5.57-11.71,12.36-15.33,20.25-1.02,2.22-2.06,4.56-6.02,4.19Z"/>
      <path class="st14" d="M760.1,696.13c2.73.64,5.27,1.57,6.62,4.32,1.21,2.46,2.44,4.91,3.64,7.37,3.79,7.76,8.53,14.73,15.98,19.52,1.26.81,2.31,1.98,3.41,3.02q7.38,6.96.04,14.38c-8.9,8.99-13.47,20.05-15.46,32.34-.24,1.5-.14,3.07-.5,4.53-.56,2.3-2.12,3.64-4.56,3.74-2.5.11-4.95.04-5.99-2.91-1.02-2.88-1.55-5.82-1.87-8.88-1.05-10.22-6.15-18.27-14.03-24.67-1.18-.95-2.52-1.71-3.68-2.68-7.86-6.59-7.88-7.37-.04-13.96,7.17-6.03,9.86-14.41,12.18-22.96.95-3.5,1.4-7.13,2.01-10.72.23-1.36.91-2.17,2.25-2.43Z"/>
      <path class="st14" d="M1491.61,666.58c11.75-7.77,15.2-17.59,16.69-28.4.38-2.76,1.64-4.64,4.46-4.96,2.38-.27,4.83-.66,6.31,2.23,5.02,9.79,10.3,19.41,22.1,23.33-4.03,5.65-9.14,8.95-11.23,14.61-1.69,4.59-3.59,9.06-3.56,14.08.02,3.4.21,7.04-4.41,7.74-4.77.73-6.65-2.66-7.61-6.28-1.66-6.22-5.58-10.72-10.01-15.01-3.05-2.95-5.91-6.11-12.74-7.32Z"/>
      <path class="st14" d="M837.18,611.97c-10.29,5.53-11.47,14.5-13.25,23.08-.56,2.71-.39,5.73-3.68,6.63-3.65,1-5.5-1.92-7.44-4.17-1.37-1.6-2.35-3.54-3.6-5.26-4.3-5.93-8.58-11.73-16.62-13.16-3.49-.62-4.59-2.99-1.36-5.7,7.79-6.54,11.79-15.27,14.28-24.83.67-2.58,1.6-4.56,4.52-4.94,2.96-.38,4.42,1.37,5.56,3.72,4.68,9.71,10.79,18.25,21.58,24.63Z"/>
      <path class="st14" d="M1429.22,689.74c-.53.91-.83,1.85-1.45,2.44-5.65,5.33-7.39,12.48-9.16,19.59-.57,2.31-.3,5.08-3.67,5.49-3.28.4-5.95-.24-7.72-3.48-3.54-6.52-8.3-12.05-14.31-16.44-2.58-1.88-2.71-3.93-.63-6.12,5.88-6.2,8.7-13.83,10.58-21.95.53-2.31.96-4.9,4.29-5.08,2.94-.16,5.48.28,6.99,3.17,3.81,7.29,7.21,14.86,14.15,19.96.59.43.63,1.59.93,2.41Z"/>
      <path class="st14" d="M642.05,776.1c-8.9-.75-17.38-5.85-16.43-16.71.8-9.19,9.07-16.59,18.79-16.32,7.8.22,16.12,7.91,15.85,14.95-.33,8.41-9.75,19.99-18.2,18.07Z"/>
      <path class="st14" d="M1702.57,746.1c-.41.83-.74,2.05-1.48,2.93-3.57,4.27-4.41,9.25-4.09,14.6.15,2.51,0,5.05-2.75,6.22-2.8,1.19-5.35.51-7.59-1.53-2.48-2.25-4.96-4.51-7.54-6.65-2.78-2.31-7.13-3.19-8.52-6.55-1.5-3.62,3.47-5.25,4.31-8.49.92-3.53,2-6.95,2.06-10.71.1-5.32,4.23-7.88,8.3-4.83,5.58,4.17,10.09,9.71,16.37,13.07.41.22.51,1.05.91,1.96Z"/>
      <path class="st14" d="M1027.46,403.59c-8.88.09-16.14-5.53-16.25-12.58-.11-7.06,8-14.37,16.12-14.53,7.96-.16,16.4,6.41,16.42,12.78.02,6.9-8.34,14.25-16.29,14.33Z"/>
      <path class="st14" d="M1078.93,380.51c-.24,5.71-5.95,10.61-11.82,10.13-5.29-.43-8.77-4.13-8.35-8.86.45-4.98,6.04-9.06,12.1-8.86,5.42.19,8.27,2.86,8.07,7.58Z"/>
      <path class="st14" d="M1100.13,381.75c-3.76,0-7.61.03-8.33-4.94-.54-3.69,2.69-7.18,7.14-7.98.3-.05.61-.04.91-.07,5.86-.67,11.37,1.51,11.69,4.64.37,3.63-5.97,8.26-11.42,8.34Z"/>
      <path class="st8" d="M999.11,1326.07c-8.57,3.51-17.42,6.1-26.49,7.96-27.66,1.12-50.92-8.89-69.61-28.88-26.47-28.29-37.85-62.11-34.89-100.73.18-2.4.66-4.9,1.61-7.09,1.46-3.39,3.69-3.58,6.11-.73,2.36,2.78,4.55,5.71,6.82,8.57-.54,5.27,1.3,10.24,1.96,15.36,3.54,27.48,13.01,52.52,31.42,73.66,13.4,15.39,29.53,26.3,50.05,29.64,11.75,1.92,22.23-1.08,31.65-8.45,12.41-9.72,18.25-22.48,18.4-38.03.07-7.79-1.73-15.07-5.78-23.21-2.84,5.94-4.95,10.3-7,14.69-.24.52-.16,1.19-.22,1.79-3.17,1.11-5.12,3.68-7.22,6.07-25.83,16.03-42.78,9.31-59.78-5.33-16.51-14.23-27.77-32.01-35.52-52.18-.73-1.9-2.1-3.78-.56-6.14,5.7-1.33,12.05,1.58,17.61-1.96,27.23-5.26,46.46-40.54,38.27-69.92-1.57-10.45-4.15-20.33-14.54-25.8-12.73-10.55-27.12-14.56-43.47-11.25-24.23,4.91-42.28,17.86-53.98,39.92-15.57,29.34-21.54,60.14-15.54,92.97.87,4.75.23,9.84,2.92,14.23-.34,4.24,1.67,8.66-1.02,12.71-4.21.04-6.41-2.08-7.96-6.02-7.67-19.46-12.93-39.46-13.65-60.42-.24-6.95-1.88-12.1-8.45-15.66-4.49-2.43-8.29-6.21-11.41-10.46-1.27-1.72-1.46-3.25.03-4.88,1.4-1.52,2.72-.58,4.1.03,3.34,1.47,6.59,3.28,10.07,4.26,4.58,1.28,6.25.13,6.55-4.68.58-9.23,2.68-18.12,5.45-26.85,10.22-32.16,31.96-52.83,63.88-62.81,17.29-5.41,34.42-3.87,50.98,3.44,21.39,9.45,38.75,24.06,53.59,41.93,27.08,32.61,45.49,69.31,52.25,111.39,2.84,17.68,2.24,35.31-2.7,52.67-4.11,14.42-12.66,25.58-24.77,34.15-2.98,2.11-6.1,4.03-9.15,6.03Z"/>
      <path class="st1" d="M1482.19,1214.2c3.4,1.33,6.77,2.75,10.21,3.96,15.42,5.44,26.26,16.83,35.45,29.36,6.39,8.71,5.69,19.83,2.83,30.07-7.28,26.11-24.62,43.99-46.87,58.57-18.1,11.86-38.1,19.12-57.67,27.55-5.34,2.3-11.13,3.13-16.83,4-21.49,3.26-42.99,4.62-64.35-.82-11.91-3.03-23.08-8-33.52-14.38-17.27-10.55-23.23-26.63-21.52-46.17.25-2.83,1.69-5.19,2.76-7.71,2.03-4.76,5.3-8.96,6.54-14.08,16.35-4.9,31.88-11.38,44.69-23.11,14.87,2.53,29.76,2.8,44.53-.38,28.02-6.05,51.35-20.31,70.77-41.2,8.39,1.05,15.85-1.63,22.99-5.66ZM1448.17,1245.82c-12.89-1.14-19.27,9.45-20.38,19.92-.46,4.37,1.2,9.13,5.39,11.96,8.73,5.89,27.38.18,31.53-9.59.47-1.11.88-2.28,1.07-3.46,1.84-11.26-5.09-18.65-17.61-18.84ZM1387.09,1279.11c-.95,7.95,3.39,10.96,12.4,12.24,6.46.91,15.19-8.12,14.94-14.52-.21-5.44-7.75-10.94-14.83-10.81-8.37.16-12.59,4.57-12.51,13.09Z"/>
      <path class="st14" d="M1343.91,1261.44c-12.82,11.73-28.35,18.21-44.69,23.11-31.03-2.73-53.36-18.81-68.49-45.34-6.47-11.36-11.91-23.27-14.87-36.2-.91-3.96-1.38-7.74-.98-11.71.49-1.08,1.35-2.14,1.4-3.24.4-8.33,3.13-16.01,5.97-23.75,6.44-17.52,16.05-33.38,25.26-49.48,13.12-22.94,30.59-41.48,54.02-54.14,6.22-3.36,11.69-7.59,14.17-14.77.66-1.93,2.37-3.5,3.59-5.23,3.85-.26,7.69-.68,11.55-.73,6.29-.08,12.51.35,17.6,4.79-.03.94.44,1.31,1.35,1.18.77.75,1.54,1.49,2.31,2.24-.07.97.36,1.49,1.35,1.5l.32.38c-.09,2.49.67,4.77,1.45,7.11,8.94,26.87-3.93,57.12-24.36,72.25-8.06,5.96-16.98,8.96-26.26,11.64-1.26-.15-2.52-.29-3.78-.44-.86-1.53-2.18-1.59-3.66-1.13-1.2-.21-2.41-.35-3.58-.65-8.55-2.13-14.94-7.95-21.94-12.77-2.63-1.81-5.25-5.1-8.86-3.06-3.16,1.78-2.05,5.49-1.98,8.4.34,14.04,1.65,28.05,5.46,41.56,5.58,19.78,13.83,38.38,27.83,53.89,13.91,15.41,30.81,26.53,49.83,34.58Z"/>
      <path class="st8" d="M1212.77,1189.13c-20.48-47.44-20.87-94.48,4.75-140.08,23.33-41.52,60.13-65.68,106.73-70.61,61.9-6.55,113.71,13.99,150.17,66.81,4.49,6.5,4.76,6.34,10.61.64,1.95-1.9,2.56-6.91,6.43-5.04,4.08,1.98,2.45,6.55,1.8,9.94-.69,3.54-1.88,7.22-3.8,10.24-2.7,4.23-2.36,7.95-.02,11.93.15.26.2.58.33.85,8.18,16.47,10.05,33.88,7.01,51.77-1.33,7.83-.73,15.9-3.27,23.54-4.6,1.01-4.88-2.4-5.39-5.4-1.81-10.55-4.48-20.82-8.79-30.68-11.84-27.08-30.09-49.31-51.79-68.95-2.68-2.42-5.46-4.9-9.19-5.74-10.16-8.55-22.08-13.98-34.22-18.9-33.17-13.43-65.87-11.78-97.21,5.13-38.76,20.91-60.53,54.71-70.35,96.91-4.56,19.58-3.52,39.42-2.94,59.25.08,2.77,2.42,5.92-.86,8.39Z"/>
      <path class="st14" d="M941.4,1115.39c10.39,5.47,12.97,15.35,14.54,25.8-.96.81-1.45,1.82-1.72,3.08-5.77,27.11-18.96,49.06-43.82,62.86-1.63.9-3.14,1.84-4.07,3.51-8.58,1.16-16.26-1.6-23.68-5.45-2.27-2.86-4.46-5.79-6.82-8.57-2.42-2.85-4.65-2.66-6.11.73-.95,2.19-1.43,4.69-1.61,7.09-2.96,38.61,8.43,72.44,34.89,100.73,18.7,19.98,41.95,30,69.61,28.88-9.13,6.23-19.86,7.53-30.28,8.54-20.3,1.97-39.83-1.84-58.3-10.77-8.36-4.04-14.94-10.29-21.6-16.48-12.07-14.99-22.97-30.68-29.63-48.94-.46-1.27-1.3-1.99-2.5-2.42,2.68-4.05.67-8.47,1.01-12.71,2.3-2.23,1.41-5.14,1.56-7.79.26-4.56-.19-9.22.58-13.68,5.13-29.63,17.22-56.39,35.28-80.23,8.67-11.44,19.58-21.1,33.8-25.38,10.4-3.14,21.5-3.65,31.62-8.14,2.09-.93,4.8-.46,7.23-.64Z"/>
      <path class="st4" d="M1212.77,1189.13c3.28-2.47.94-5.62.86-8.39-.58-19.83-1.62-39.67,2.94-59.25,9.82-42.2,31.59-76,70.35-96.91,31.33-16.9,64.04-18.56,97.21-5.13,12.14,4.92,24.05,10.35,34.22,18.9-.05,1.24-.09,2.48-.14,3.73-17.07-11.76-35.91-17.3-56.66-16.21-14.98.79-29.35,4.45-43.52,9.1-1.64.54-2.61,1.48-2.23,3.31.39,1.88,2.14,1.88,3.48,2.42-1.23,1.73-2.93,3.3-3.59,5.23-2.48,7.17-7.95,11.4-14.17,14.77-23.43,12.67-40.9,31.2-54.02,54.14-9.2,16.09-18.81,31.96-25.26,49.48-2.84,7.73-5.58,15.41-5.97,23.75-.05,1.1-.91,2.16-1.4,3.24-.7-.72-1.4-1.44-2.1-2.17Z"/>
      <path class="st8" d="M1321.82,932.08c-8.79-.63-17.79-2.41-27.03-2.3-21.5.26-41.4,6.96-61.22,14.2-4.3,1.57-8.48,3.49-12.83,4.87-14.34,4.57-24.35-4.39-21.71-19.34,1.49-8.46,6.84-14.2,13.75-18.59,7.02-4.46,14.82-7.19,22.85-9.2,21.52-5.39,43.15-8.79,65.14-2.72,6.18,1.7,12.37,3.41,18.42,5.5,8.12,2.81,13.28,8.49,14.85,17.08,1.44,7.9-.91,10.55-9.13,10.49-.92,0-1.83,0-3.09,0Z"/>
      <path class="st0" d="M1608.73,1193.21c.02-3.83,2.89-5.9,5.22-8.23,7.06-7.05,10.5-15.37,9.95-25.48-.36-6.68.02-13.4.06-20.1.74.5,1.48,1.03,2.23,1.52,8.16,5.24,10.22,5.08,17.35-1.3,4.36-3.9,9.05-7.29,14.82-8.77,8.18-2.11,12.52-.51,17.51,6.14,10.09,13.43,10.78,27.39,2.48,41.9-8.72,15.23-21.14,26.69-36.11,35.56-5.11,3.03-10.7,4.44-16.64,4.14-7.15-.36-11.88-4.87-10.63-11.85,1.18-6.6-1.05-10.45-6.25-13.52Z"/>
      <path class="st8" d="M825.43,1023.8c-.28-6.29,2.79-10.9,7.23-14.98,11.52-10.58,25.55-16.06,40.36-19.79,8.18-2.06,16.51-3.49,24.78-5.2,9.87-.21,19.35,1.78,28.7,4.81,10.59,3.43,15.37,11.09,16.91,21.63,1.32,9.05-4.19,12.44-11.47,12.6-4.52.1-9.14-.61-13.59-1.57-13.51-2.92-26.64-2-39.5,3.03-9.92,3.87-20.06,7.18-29.77,11.62-13.31,6.08-18.34,3.69-23.08-10.41-.19-.58-.38-1.16-.56-1.74Z"/>
      <path class="st8" d="M1608.73,1193.21c5.21,3.06,7.43,6.92,6.25,13.52-1.25,6.99,3.47,11.49,10.63,11.85,5.94.3,11.53-1.12,16.64-4.14,14.97-8.87,27.4-20.33,36.11-35.56,8.3-14.51,7.61-28.47-2.48-41.9-5-6.65-9.34-8.25-17.51-6.14-5.77,1.49-10.46,4.87-14.82,8.77-7.13,6.39-9.19,6.54-17.35,1.3-.76-.49-1.49-1.01-2.23-1.52-1.92-4.04.97-6.21,3.38-8.51,15.8-15.09,40.86-15.64,57.26-.28,17.66,16.53,22.55,36.92,9.18,58.39-9.08,14.59-21.14,26-35.93,34.42-17.87,10.17-39.57,7.03-53.99-7.24-3.58-3.54-6.43-7.46-6.37-12.7.14-12,1.72-12.36,11.24-10.27Z"/>
      <path class="st14" d="M1418.2,1042.07c.05-1.24.09-2.49.14-3.73,3.73.84,6.51,3.32,9.19,5.74,21.7,19.63,39.95,41.87,51.79,68.95,4.31,9.86,6.99,20.13,8.79,30.68.51,2.99.79,6.41,5.39,5.4.64,18.71-.51,37.18-7.3,54.9-1.31,3.41-2.68,6.8-4.02,10.19-7.14,4.03-14.6,6.71-22.99,5.66,1.09-2.16,2.09-4.38,3.3-6.48,8.86-15.39,14.21-31.67,12.98-49.7-3.27-48-20.65-89.34-57.28-121.62Z"/>
      <path class="st8" d="M1123.81,1375.98c-12.03.34-22.77-5.5-32.15-14.33-3.4-3.21-5.18-7.45-6.42-11.96-.95-3.43-.23-5.97,2.95-7.72,3.17-1.75,5.36.05,7.08,2.24,10.48,13.4,24.7,15.83,40.31,13.57,10.86-1.57,18.69-8.63,25.95-16.13,8.16-8.42,13.95-17.89,10.29-30.42-.91-3.11.93-3.84,3.4-3.71,5.35.28,12.13,5.69,13.2,11.18,1.3,6.65,1.74,13.52-2.19,19.55-14.41,22.12-33.22,37.22-62.41,37.73Z"/>
      <path class="st1" d="M1107.88,1254.48c13.16,4.57,17.85,15.34,16.99,25.19-.28,3.18-1.07,6.3-3.4,8.29-10.4,8.91-21.71,15.72-36.24,14.85-11.07-.66-23.07-12.94-22.27-23.87.47-6.38,5.68-9.74,10.52-13.06,2.25-1.55,5.46-1.16,7.19-3.68,5.64,2.12,10.64,2.42,15.05-3.05,2.9-3.6,7.59-4.44,12.16-4.67Z"/>
      <path class="st14" d="M1107.88,1254.48c-4.57.23-9.26,1.07-12.16,4.67-4.4,5.48-9.4,5.17-15.05,3.05-4.69-13.49,2.59-22.95,16.57-21.49,7.59.79,10.37,4.39,10.64,13.77Z"/>
      <path class="st8" d="M1540.51,1533.85c1.31-3.43,2.58-6.88,5.32-9.5,3.11-2.98,4.97-2.76,7.06.99.89,1.59,1.6,3.31,2.19,5.03,5.11,14.96,14.52,26.84,26.83,36.37,18.33,14.2,38.3,25.13,61.66,28.48,12.93,1.85,24.78-1.89,36.11-7.74,3.65-1.89,6.36-4.86,8.18-8.44,8.16-16.11,8.86-32.21-.72-48.05-3.26-5.38-8.05-9.14-13.98-11.34-5.76-2.14-11.05-5.17-16.37-8.17-4.25-2.4-5.72-6.03-5.71-10.66.01-8.52,2.67-10,10.25-5.95,29.2,15.61,60.57,20.16,93.19,17.92,10.68-.73,21.14-2.71,31.46-5.78,18.16-5.41,28.94-18.53,37.37-34.33.85-1.6,1.2-3.36,1.1-5.29-1.06-20.74-25.32-47.6-45.87-50.38-4.5-.61-9.13-.21-13.7-.28-9.37-1.26-18.75-2.45-28.11-3.82-8.8-1.29-11.69-5.82-9.39-14.48.47-1.75,1.03-3.55,2.79-4.55,19.66,2.53,39.29,5.33,59.21,4.33,22.9-1.14,44.64-6.12,64.21-18.69,9.46-6.08,16.67-14.18,21.99-24.04,3.54-6.55,4.17-13.33,1.64-20.32-3.36-9.29-8.24-17.7-15.28-24.68-6.29-6.23-14.08-10.41-22.8-10.22-10.04.22-20.11.14-30.15.62-7.75-1.19-15.53-2.18-23.23-3.64-7.35-1.4-10.78-11.11-6.3-16.99,1.01-1.32,2.25-1.98,3.84-1.88,2.4.16,4.8.43,7.2.66,18.64,4.68,37.5,4.4,56.21,1.22,20.3-3.44,39.43-10.71,57.04-21.46,17.29-10.55,27.29-30.96,24-48.86-3.69-20.1-18.88-45.26-48.54-51.6-9.9-2.11-19.96-3.35-30.02-2.13-10.14,1.23-20.8,1.32-29.1,8.85-1.3.36-1.69,1.63-2.51,2.48-2.98,3.06-4.96,2.57-6.3-1.41-2.3-6.83.34-14.71,6.6-19.61,4.69-3.68,10.24-5.49,15.92-6.69,15.45-3.26,30.97-3.18,46.42.09,10.66,2.26,20.09,7.01,28.35,14.22,27.41,23.91,35.81,65.74,19.72,97.93-5.8,11.6-14.4,20.34-25.58,26.74-11.14,6.38-23.19,10.67-35.11,15.27.41,3.58,3.2,5.37,4.89,7.82,9.06,13.13,14.93,27.24,14.45,43.57-.63,21.32-11.44,36.93-27.63,49.38-11.81,9.08-25.43,14.42-39.85,17.79-2.9.68-5.95.88-8.6,2.64.53,3.31,3.16,5.21,4.91,7.6,8.07,11.02,13.51,23.18,16.3,36.54,2.13,10.25.66,19.78-4.18,29.25-12.97,25.37-33.87,38.2-61.71,41.57-19.29,2.34-38.42,1.72-57.6-.48-2.91-1.53-5.67-2.58-4.41,2.63,3.48,14.33-.12,27.73-4.63,41.23-11.1,33.2-45.38,42.99-69.09,37.53-26.5-6.1-49.44-19.05-68.67-38.3-10.86-10.87-16.72-24.62-21.29-39Z"/>
      <path class="st4" d="M1809,1300.87c10.04-.48,20.11-.4,30.15-.62,8.72-.19,16.51,3.99,22.8,10.22,7.05,6.98,11.92,15.39,15.28,24.68,2.53,6.99,1.89,13.77-1.64,20.32-5.33,9.86-12.54,17.96-21.99,24.04-19.56,12.57-41.31,17.55-64.21,18.69-19.93.99-39.56-1.81-59.21-4.33,3.41-3.28,7.76-3.45,11.95-2.95,15.75,1.88,31.42,1.82,47.21.1,5.45-.59,10.91-1.01,16.13-2.49,11.84-3.38,22.23-9.9,32.32-16.64,12.22-8.18,13.73-21.39,10.32-33.22-4.07-14.11-13.28-24.39-26.1-31.41-4.23-2.32-8.66-4.27-13-6.39Z"/>
      <path class="st4" d="M1820.11,1165.06c8.29-7.54,18.96-7.62,29.1-8.85,10.05-1.22,20.12.02,30.02,2.13,29.66,6.34,44.84,31.49,48.54,51.6,3.29,17.9-6.7,38.31-24,48.86-17.61,10.74-36.74,18.01-57.04,21.46-18.71,3.17-37.57,3.46-56.21-1.22,20.94-.9,41.83-2.35,62.23-7.47,17.14-4.31,34.02-9.48,48.86-19.61,15.57-10.63,21.37-31.32,13.95-48.42-7.5-17.29-20.47-28.2-37.97-34.53-16.11-5.83-32.38-8-49.28-4.33-2.64.57-5.46.28-8.2.39Z"/>
      <path class="st14" d="M1429.21,1909.93c9.29-1.91,18.49-2.81,27.88-.04,10.8,3.19,19.02,13.41,19.91,24.58,1.22,15.27-4.36,26.7-17.73,34.24-9.9,5.58-25.38,5.65-37.11-3-7.97-5.88-11.45-20.21-8.59-31.84,2.22-9.02,8.11-15.47,13.85-22.15l-.07.07c.64-.64,1.28-1.28,1.92-1.92l-.08.06Z"/>
      <path class="st14" d="M1427.44,1911.72c-2.44,0-4.88-.08-7.32,0-16.8.58-20.92-11.73-19.8-22.35,1.4-13.27,7.27-25.04,17.08-34.45,9.87-9.46,25.53-12.7,37.88-5.49,8.93,5.22,12.02,17.3,5.66,25.7-2.19,2.89-4.72,5.85-7.75,7.7-7,4.29-12.1,10.23-16.08,17.11-2.18,3.78-6.08,6.03-7.9,9.98,0,0,.08-.06.08-.06-.64.64-1.28,1.28-1.92,1.92l.07-.07Z"/>
      <path class="st14" d="M1494.93,1961.33c4.89.12,11.43,4.45,12.66,8.7,1.22,4.25-.6,7.77-3.69,10.51-3.85,3.42-9.49,3.56-14.43.74-5.4-3.07-8.05-8.05-6.71-12.57,1.33-4.49,6.35-7.53,12.17-7.38Z"/>
      <path class="st9" d="M889.2,1370.5c-9.77-.17-14.11-4.51-13.97-14,.13-8.8,6.22-13.68,16.8-13.45,8.79.19,14.45,5.75,14.32,14.09-.13,8.45-6.66,13.55-17.15,13.36Z"/>
      <path class="st9" d="M934.57,1346.7c9.15-.03,13.78,3.48,13.96,10.59.2,7.79-6.52,13.22-16.35,13.22-8.48,0-10.94-2.14-11.09-9.67-.2-9.81,3.9-14.1,13.49-14.14Z"/>
      <path class="st11" d="M882.65,1205.19c7.43,3.85,15.1,6.61,23.68,5.45,3.78.16,7.56.31,11.34.47-5.56,3.54-11.91.63-17.61,1.96-1.54,2.36-.17,4.24.56,6.14,7.75,20.17,19,37.95,35.52,52.18,16.99,14.64,33.94,21.35,59.78,5.33.46,3.07-.65,7.09,4.23,7.62,3.65.4,6.6-1.07,8.1-4.42,1.75-3.92-.98-6.08-3.79-8.06-.48-.34-.88-.8-1.32-1.21.07-.6-.02-1.27.22-1.79,2.05-4.39,4.15-8.75,7-14.69,4.05,8.14,5.85,15.42,5.78,23.21-.15,15.55-5.99,28.31-18.4,38.03-9.42,7.37-19.9,10.37-31.65,8.45-20.52-3.35-36.65-14.26-50.05-29.64-18.42-21.15-27.89-46.19-31.42-73.66-.66-5.12-2.5-10.09-1.96-15.36Z"/>
      <path class="st4" d="M941.4,1115.39c-2.43.18-5.14-.29-7.23.64-10.12,4.48-21.22,5-31.62,8.14-14.22,4.29-25.13,13.94-33.8,25.38-18.06,23.84-30.14,50.6-35.28,80.23-.77,4.46-.32,9.12-.58,13.68-.15,2.65.74,5.56-1.56,7.79-2.69-4.38-2.05-9.48-2.92-14.23-6.01-32.83-.03-63.63,15.54-92.97,11.7-22.06,29.75-35.01,53.98-39.92,16.35-3.31,30.74.7,43.47,11.25Z"/>
      <path class="st6" d="M917.67,1211.11c-3.78-.16-7.56-.31-11.34-.47.92-1.67,2.44-2.61,4.07-3.51,24.86-13.8,38.05-35.75,43.82-62.86.27-1.26.75-2.27,1.72-3.08,8.19,29.38-11.04,64.66-38.27,69.92Z"/>
      <path class="st6" d="M1003.13,1270.65c.44.41.84.87,1.32,1.21,2.81,1.98,5.54,4.14,3.79,8.06-1.5,3.35-4.45,4.82-8.1,4.42-4.88-.53-3.77-4.55-4.23-7.62,2.09-2.39,4.04-4.96,7.22-6.07Z"/>
      <path class="st8" d="M1418.2,1042.07c36.63,32.28,54.02,73.62,57.28,121.62,1.23,18.03-4.12,34.31-12.98,49.7-1.21,2.1-2.2,4.32-3.3,6.48-19.43,20.89-42.76,35.15-70.77,41.2-14.77,3.19-29.66,2.92-44.53.38-19.02-8.05-35.92-19.17-49.83-34.58-14-15.51-22.25-34.1-27.83-53.89-3.81-13.51-5.12-27.52-5.46-41.56-.07-2.91-1.19-6.62,1.98-8.4,3.61-2.04,6.23,1.25,8.86,3.06,6.99,4.82,13.38,10.64,21.94,12.77,1.18.29,2.39.44,3.58.65.99,1.13,2.19,1.56,3.66,1.13,1.26.15,2.52.29,3.77.44,3.43,1.7,7.19,1.45,10.73,1.15,19.31-1.63,36.26-7.44,45.8-26.32,7.33-14.5,8.65-29.56,4.93-45.18-1.93-8.12-5.55-15.34-12.28-20.66,0,0-.32-.38-.32-.38.14-1.04-.34-1.51-1.35-1.5-.77-.75-1.54-1.49-2.31-2.24,0-.91-.45-1.3-1.35-1.18-5.09-4.44-11.31-4.87-17.6-4.79-3.85.05-7.7.48-11.55.73-1.34-.55-3.09-.54-3.48-2.42-.38-1.83.59-2.77,2.23-3.31,14.17-4.65,28.54-8.3,43.52-9.1,20.75-1.1,39.59,4.45,56.66,16.21ZM1368.5,1246.49c20.93-.01,39.95-5.62,57.42-16.8,15.72-10.06,25.76-24,29.73-42.26,3.3-15.19-1.1-25.95-13.88-34.46-2.06-1.37-3.95-3.26-6.54-1.76-2.59,1.5-1.9,4.25-1.87,6.64.06,3.68.14,7.39-1.02,10.91-7.17,21.85-21.29,38.06-43.71,43.02-22.45,4.97-43.85.06-60.13-18.26-7.3-8.22-14.91-16.26-20.11-26.06-2.55-4.8-6.31-6.36-11.29-5.86-3.03.31-6.04.83-9.05,1.35-4.17.72-5.41,2.84-4.31,7.17,2.58,10.11,5.65,20.07,10.63,29.2,16.01,29.35,40.64,45.38,74.12,47.17Z"/>
      <path class="st9" d="M1448.17,1245.82c12.52.18,19.45,7.58,17.61,18.84-.19,1.18-.6,2.35-1.07,3.46-4.16,9.77-22.81,15.48-31.53,9.59-4.19-2.83-5.85-7.59-5.39-11.96,1.1-10.47,7.49-21.06,20.38-19.92Z"/>
      <path class="st9" d="M1387.09,1279.11c-.08-8.52,4.14-12.93,12.51-13.09,7.07-.13,14.62,5.37,14.83,10.81.25,6.4-8.48,15.43-14.94,14.52-9.01-1.27-13.35-4.28-12.4-12.24Z"/>
      <path class="st4" d="M1353.75,1050.06c6.74,5.31,10.35,12.53,12.28,20.66,3.72,15.62,2.4,30.67-4.93,45.18-9.54,18.88-26.49,24.69-45.8,26.32-3.54.3-7.3.54-10.73-1.15,9.28-2.68,18.21-5.68,26.26-11.64,20.43-15.13,33.3-45.38,24.36-72.25-.78-2.33-1.54-4.62-1.45-7.11Z"/>
      <path class="st4" d="M1300.8,1140.62c-1.47.43-2.67,0-3.66-1.13,1.48-.46,2.8-.4,3.66,1.13Z"/>
      <path class="st4" d="M1352.08,1048.18c1.02,0,1.5.47,1.35,1.5-.99-.01-1.43-.53-1.35-1.5Z"/>
      <path class="st4" d="M1348.43,1044.76c.9-.11,1.35.28,1.35,1.18-.91.13-1.38-.24-1.35-1.18Z"/>
      <path class="st2" d="M1427.37,1911.79c.64-.64,1.28-1.28,1.92-1.92-.64.64-1.28,1.28-1.92,1.92Z"/>
      <path class="st11" d="M1368.5,1246.49c-33.48-1.79-58.11-17.82-74.12-47.17-4.98-9.13-8.05-19.09-10.63-29.2-1.1-4.33.14-6.45,4.31-7.17,3.01-.52,6.02-1.04,9.05-1.35,4.99-.51,8.75,1.06,11.29,5.86,5.2,9.8,12.81,17.85,20.11,26.06,16.28,18.32,37.69,23.23,60.13,18.26,22.41-4.96,36.54-21.17,43.71-43.02,1.15-3.51,1.07-7.23,1.02-10.91-.04-2.39-.72-5.14,1.87-6.64,2.59-1.5,4.48.39,6.54,1.76,12.79,8.51,17.18,19.27,13.88,34.46-3.97,18.26-14.01,32.2-29.73,42.26-17.47,11.18-36.49,16.79-57.42,16.8ZM1436.96,1187.22c-4.96.12-8.04,2.72-7.91,6.65.11,3.35,2.99,5.68,6.8,5.51,4.36-.2,8.06-3.39,8.05-6.95,0-3.41-2.54-5.32-6.94-5.21Z"/>
      <path class="st6" d="M1436.96,1187.22c4.4-.11,6.94,1.79,6.94,5.21,0,3.56-3.7,6.76-8.05,6.95-3.81.17-6.69-2.16-6.8-5.51-.13-3.93,2.95-6.52,7.91-6.65Z"/>
    </g>
  </g>
  <g id="arrow">
    <g>
      <path class="st15" d="M966.33,1537.09c4.66,15.31,13.86,26.28,29.87,30.64-.73,5.21-4.96,5.12-8.24,6.15-21.86,6.88-44.49,10.81-66.55,16.85-56.04,15.35-113.34,24.41-170.34,34.95-38.43,7.11-76.54,15.7-114.79,23.63-50.51,10.47-100.79,21.99-151.15,33.14-14,3.1-28.02,6.28-41.43,11.54-2.49.98-4.49,1.09-6.89-.25-4.76-2.66-9.7-5-15.27-7.83,5.1-7.89,10.12-15.67,15.14-23.46,2.4-.39,4.84-.64,7.2-1.19,33.24-7.83,66.49-15.66,99.71-23.56,87.52-20.81,175.03-41.64,262.55-62.47,53.4-12.71,106.79-25.43,160.18-38.14Z"/>
      <path class="st12" d="M392.59,1698.83c1.89.71,3.78,1.41,5.67,2.12,1.12,2.74,3.54,4.09,5.93,5.42,5.99,3.34,10.4,8.32,14.36,13.76,6.72,9.24,4.13,16.62-7.01,19.99-1.45.44-2.94,1.01-4.42,1.02-19.14.13-38.23,1.01-57.28-2.72-26.94-5.27-52.79-14.13-78.9-22.22-4.05-1.25-7.99-3.08-12.39-2.73.6-1.5,12.39-14.06,14.04-15.52,16.69-14.77,34.07-27.85,53.18-39.26,20.16-12.04,40.9-22.82,64-28.4,8.16-1.97,16.44.06,24.5-1.82,1,3.19-.1,6.04-1.67,8.68-5.58,9.38-10.96,18.93-18.73,26.77-8.98,9.06-18.09,18-27.1,27.03-1.44,1.44-3.65,2.83-2.47,5.31,1.04,2.18,3.3,2.4,5.51,2.41,7.59.03,15.18.1,22.77.15ZM299.79,1709.95c4.19-.12,6.37-1.86,6.24-4.97-.18-4.41-5.35-8.26-10.58-7.92-3.6.24-5.69,2.01-5.65,5.72.05,4.17,4.54,7.32,9.99,7.17Z"/>
      <path class="st3" d="M966.33,1537.09c-53.39,12.71-106.79,25.43-160.18,38.14-87.51,20.83-175.03,41.67-262.55,62.47-33.23,7.9-66.47,15.73-99.71,23.56-2.36.56-4.8.8-7.2,1.19.51-1.74,1.16-3.45,1.5-5.22.65-3.34,2.31-4.53,5.91-5.43,42.33-10.57,85.03-19.53,127.42-29.81,36.75-8.92,73.29-18.76,110.13-27.3,60.03-13.92,119.66-29.46,179.82-42.84,31.84-7.08,63.49-15.14,95.34-22.29,1.19-.27,2.37-.6,3.53-.97,4.46-1.43,6.3.41,6.11,4.84-.05,1.22-.08,2.43-.12,3.65Z"/>
      <path class="st5" d="M258.55,1713.48c4.41-.35,8.34,1.48,12.39,2.73,26.1,8.09,51.96,16.95,78.9,22.22,19.05,3.73,38.14,2.85,57.28,2.72,1.48-.01,2.97-.58,4.42-1.02,11.14-3.37,13.73-10.75,7.01-19.99-3.96-5.44-8.36-10.42-14.36-13.76-2.38-1.33-4.81-2.68-5.93-5.42,12.77.17,24.64,3.96,35.76,9.8,8.15,4.28,12.89,12.02,16.57,20.17,2.54,5.63.33,10.62-3.32,15.24-7.34,9.3-17.74,13.01-28.67,14.69-7.76,1.2-15.68,2.01-23.65,2.23-22.18.59-43.61-3.26-65.01-8.68-24.65-6.24-48.55-14.32-71.43-25.37-2.67-1.29-5.89-1.92-7.48-4.92,1.46-4.29,4.88-7.18,7.51-10.64Z"/>
      <path class="st3" d="M414.28,1628.48c-8.06,1.88-16.34-.15-24.5,1.82-23.1,5.58-43.84,16.36-64,28.4-19.11,11.41-57.48,51.06-74.17,65.84-1.65,1.46.44-6.66,4.54-10.55,20.4-26.6,63.06-63.93,87.22-79,6.21-3.87,12.39-7.79,18.43-11.91,12.46-8.49,26.4-12.27,41.21-13.48,2.81-.23,5.47-.02,7.93,1.48,1.5,5.73,5.39,11.01,3.34,17.42Z"/>
      <path class="st5" d="M414.28,1628.48c2.05-6.41-1.84-11.69-3.34-17.42,16.22,2.29,23.29,10.91,19.82,26.23-3.78,16.69-13.83,29.66-27.51,39.77-1.92,1.42-4.33,2.28-6.63,3.06-7.21,2.43-8.55,4.69-6.51,11.87.66,2.33,1.65,4.58,2.49,6.86-7.59-.05-15.18-.12-22.77-.15-2.21,0-4.47-.24-5.51-2.41-1.18-2.49,1.02-3.87,2.47-5.31,9.01-9.03,18.12-17.97,27.1-27.03,7.77-7.84,13.15-17.38,18.73-26.77,1.57-2.64,2.67-5.49,1.67-8.68Z"/>
      <path class="st2" d="M299.79,1709.95c-5.44.16-9.94-3-9.99-7.17-.04-3.7,2.05-5.48,5.65-5.72,5.24-.34,10.4,3.5,10.58,7.92.13,3.11-2.06,4.84-6.24,4.97Z"/>
    </g>
  </g>
</svg>